<?xml version="1.0" encoding="utf-8"?>
<!-- Generator: Adobe Illustrator 15.0.0, SVG Export Plug-In . SVG Version: 6.00 Build 0)  -->
<!DOCTYPE svg PUBLIC "-//W3C//DTD SVG 1.1//EN" "http://www.w3.org/Graphics/SVG/1.1/DTD/svg11.dtd">
<svg version="1.1" id="Layer_1" xmlns="http://www.w3.org/2000/svg" xmlns:xlink="http://www.w3.org/1999/xlink" x="0px" y="0px"
	 width="800px" height="250px" viewBox="0 0 800 250" enable-background="new 0 0 800 250" xml:space="preserve">
<path fill="#A24689" d="M246.053,55.211c6.616,0,12.864,1.314,18.74,3.947c5.872,2.636,11.037,6.181,15.495,10.637
	c4.456,4.456,8,9.658,10.632,15.597c2.636,5.943,3.951,12.292,3.951,19.042c0,6.752-1.283,13.063-3.849,18.939
	c-2.566,5.872-6.043,11.037-10.432,15.493c-4.389,4.46-9.554,7.973-15.495,10.536c-5.945,2.562-12.357,3.847-19.244,3.847
	c-6.752,0-13.099-1.213-19.04-3.645c-5.945-2.432-11.143-5.839-15.597-10.229c-4.458-4.389-7.97-9.554-10.534-15.497
	c-2.566-5.939-3.849-12.422-3.849-19.444c0-6.75,1.246-13.066,3.749-18.94c2.497-5.876,5.974-11.006,10.43-15.397
	c4.458-4.387,9.688-7.899,15.699-10.532C232.715,56.932,239.167,55.483,246.053,55.211z M245.851,75.265
	c-3.917,0-7.664,0.744-11.243,2.229c-3.578,1.487-6.683,3.545-9.317,6.176c-2.631,2.634-4.728,5.707-6.28,9.217
	c-1.553,3.514-2.329,7.361-2.329,11.548c0,3.918,0.776,7.664,2.329,11.241c1.553,3.579,3.649,6.72,6.28,9.42
	c2.634,2.701,5.739,4.83,9.317,6.378c3.58,1.553,7.327,2.332,11.243,2.332s7.664-0.779,11.243-2.332
	c3.576-1.549,6.685-3.678,9.317-6.378c2.636-2.701,4.726-5.841,6.28-9.42c1.551-3.578,2.33-7.323,2.33-11.241
	c-0.405-7.968-3.241-14.686-8.508-20.158c-5.267-5.467-12.087-8.473-20.46-9.012H245.851z"/>
<path fill="#8F8F8F" d="M387.037,23.99c2.296-0.133,4.458,0.778,6.482,2.736c2.025,1.959,3.039,4.084,3.039,6.378v71.101
	c0,6.62-1.351,12.898-4.05,18.838c-2.705,5.943-6.35,11.141-10.941,15.598c-4.591,4.455-9.823,8-15.697,10.634
	c-5.876,2.634-12.054,3.952-18.535,3.952c-6.618,0-12.898-1.283-18.837-3.85c-5.946-2.564-11.144-6.078-15.597-10.535
	c-4.458-4.455-8.003-9.653-10.637-15.597c-2.631-5.939-3.949-12.287-3.949-19.04c0-7.292,1.181-13.705,3.545-19.244
	c2.362-5.535,5.904-10.734,10.636-15.597v0.203c4.994-4.726,10.498-8.303,16.508-10.735c6.007-2.431,12.186-3.647,18.533-3.647
	c3.78,0,8.271,0.607,13.47,1.825c5.198,1.213,10.363,3.58,15.497,7.087V34.118c0-1.349,0.268-2.634,0.812-3.849
	c0.535-1.216,1.246-2.33,2.125-3.343c0.879-1.011,1.925-1.786,3.141-2.329c1.215-0.538,2.429-0.74,3.647-0.607H387.037z
	 M376.504,104.205c0-3.647-0.778-7.222-2.331-10.736c-1.553-3.51-3.682-6.648-6.378-9.419c-2.703-2.766-5.809-4.963-9.319-6.583
	c-3.512-1.622-7.227-2.429-11.141-2.429c-3.918,0-7.666,0.776-11.241,2.327c-3.58,1.555-6.685,3.645-9.319,6.279
	c-2.633,2.633-4.729,5.741-6.28,9.318c-1.555,3.58-2.327,7.327-2.327,11.243c0,4.052,0.772,7.833,2.327,11.344
	c1.551,3.514,3.647,6.583,6.28,9.216c2.634,2.633,5.739,4.73,9.319,6.279c3.576,1.555,7.323,2.331,11.241,2.331
	c3.915,0,7.629-0.776,11.141-2.331c3.51-1.549,6.616-3.646,9.319-6.279c2.697-2.633,4.826-5.702,6.378-9.216
	C375.726,112.039,376.504,108.257,376.504,104.205z"/>
<path fill="#8F8F8F" d="M451.452,55.211c6.613,0,12.861,1.314,18.735,3.947c5.876,2.636,11.041,6.181,15.497,10.637
	s8.001,9.658,10.635,15.597c2.631,5.943,3.949,12.292,3.949,19.042c0,6.752-1.285,13.063-3.848,18.939
	c-2.568,5.872-6.048,11.037-10.432,15.493c-4.391,4.46-9.559,7.973-15.497,10.536c-5.944,2.562-12.357,3.847-19.244,3.847
	c-6.755,0-13.101-1.213-19.042-3.645s-11.14-5.839-15.598-10.229c-4.454-4.389-7.968-9.554-10.532-15.497
	c-2.566-5.939-3.847-12.422-3.847-19.444c0-6.75,1.246-13.066,3.747-18.94c2.496-5.876,5.974-11.006,10.432-15.397
	c4.454-4.387,9.688-7.899,15.697-10.532C438.114,56.932,444.563,55.483,451.452,55.211z M451.248,75.265
	c-3.917,0-7.666,0.744-11.241,2.229c-3.58,1.487-6.686,3.545-9.317,6.176c-2.636,2.634-4.729,5.707-6.28,9.217
	c-1.555,3.514-2.329,7.361-2.329,11.548c0,3.918,0.774,7.664,2.329,11.241c1.551,3.579,3.645,6.72,6.28,9.42
	c2.632,2.701,5.737,4.83,9.317,6.378c3.575,1.553,7.324,2.332,11.241,2.332c3.914,0,7.663-0.779,11.241-2.332
	c3.579-1.549,6.687-3.678,9.32-6.378c2.632-2.701,4.724-5.841,6.278-9.42c1.551-3.578,2.331-7.323,2.331-11.241
	c-0.406-7.968-3.244-14.686-8.509-20.158c-5.266-5.467-12.088-8.473-20.458-9.012H451.248z"/>
<path fill="#8F8F8F" d="M554.352,55.211c6.616,0,12.863,1.314,18.739,3.947c5.872,2.636,11.037,6.181,15.495,10.637
	c4.456,4.456,8.001,9.658,10.633,15.597c2.636,5.943,3.951,12.292,3.951,19.042c0,6.752-1.285,13.063-3.849,18.939
	c-2.566,5.872-6.046,11.037-10.433,15.493c-4.389,4.46-9.554,7.973-15.495,10.536c-5.945,2.562-12.356,3.847-19.244,3.847
	c-6.753,0-13.101-1.213-19.04-3.645c-5.945-2.432-11.143-5.839-15.597-10.229c-4.458-4.389-7.971-9.554-10.534-15.497
	c-2.566-5.939-3.85-12.422-3.85-19.444c0-6.75,1.246-13.066,3.747-18.94c2.499-5.876,5.977-11.006,10.432-15.397
	c4.459-4.387,9.689-7.899,15.7-10.532C541.015,56.932,547.464,55.483,554.352,55.211z M554.149,75.265
	c-3.917,0-7.666,0.744-11.243,2.229c-3.58,1.487-6.686,3.545-9.316,6.176c-2.634,2.634-4.729,5.707-6.281,9.217
	c-1.553,3.514-2.329,7.361-2.329,11.548c0,3.918,0.776,7.664,2.329,11.241c1.553,3.579,3.647,6.72,6.281,9.42
	c2.631,2.701,5.736,4.83,9.316,6.378c3.577,1.553,7.326,2.332,11.243,2.332s7.664-0.779,11.243-2.332
	c3.575-1.549,6.686-3.678,9.316-6.378c2.634-2.701,4.726-5.841,6.281-9.42c1.551-3.578,2.329-7.323,2.329-11.241
	c-0.404-7.968-3.24-14.686-8.508-20.158c-5.268-5.467-12.087-8.473-20.46-9.012H554.149z"/>
<path fill="#8F8F8F" d="M603.17,222.569c0,1.923-1.557,3.479-3.478,3.479H370.189c-1.92,0-3.478-1.557-3.478-3.479v-48.278
	c0-1.924,1.557-3.48,3.478-3.48h229.503c1.921,0,3.478,1.557,3.478,3.48V222.569z"/>
<path fill="#FFFFFF" d="M402.4,189.697c-0.1,0.163-0.203,0.286-0.313,0.367c-0.109,0.082-0.25,0.123-0.426,0.123
	c-0.186,0-0.4-0.092-0.646-0.277c-0.246-0.186-0.557-0.391-0.933-0.615c-0.377-0.223-0.83-0.428-1.359-0.613
	c-0.53-0.186-1.171-0.279-1.924-0.279c-0.71,0-1.338,0.096-1.883,0.287c-0.546,0.191-1.002,0.45-1.368,0.777
	c-0.366,0.328-0.642,0.713-0.827,1.155s-0.278,0.92-0.278,1.433c0,0.655,0.161,1.199,0.483,1.63c0.322,0.431,0.748,0.8,1.277,1.105
	c0.529,0.306,1.13,0.571,1.801,0.794c0.671,0.225,1.359,0.456,2.063,0.696s1.392,0.511,2.063,0.811
	c0.671,0.301,1.272,0.68,1.802,1.138c0.529,0.459,0.955,1.021,1.277,1.688s0.482,1.484,0.482,2.457c0,1.025-0.174,1.989-0.523,2.891
	c-0.35,0.9-0.859,1.684-1.531,2.35s-1.497,1.189-2.474,1.572c-0.977,0.382-2.088,0.573-3.333,0.573
	c-1.518,0-2.901-0.276-4.152-0.827c-1.25-0.551-2.317-1.297-3.202-2.235l0.917-1.507c0.087-0.12,0.193-0.221,0.319-0.303
	c0.125-0.082,0.265-0.123,0.417-0.123c0.229,0,0.491,0.123,0.786,0.369c0.295,0.245,0.663,0.516,1.105,0.811
	c0.442,0.294,0.977,0.564,1.605,0.811c0.627,0.245,1.395,0.368,2.301,0.368c0.753,0,1.425-0.104,2.015-0.312
	c0.589-0.207,1.089-0.5,1.499-0.876c0.409-0.376,0.723-0.827,0.941-1.351c0.218-0.524,0.328-1.108,0.328-1.753
	c0-0.71-0.161-1.291-0.483-1.744c-0.322-0.453-0.745-0.833-1.269-1.138c-0.524-0.307-1.122-0.565-1.793-0.778
	c-0.671-0.213-1.359-0.431-2.063-0.655c-0.704-0.224-1.392-0.482-2.063-0.777s-1.269-0.678-1.793-1.146
	c-0.524-0.47-0.947-1.057-1.27-1.761s-0.483-1.575-0.483-2.612c0-0.83,0.161-1.632,0.483-2.407s0.789-1.463,1.4-2.063
	c0.611-0.601,1.368-1.081,2.268-1.441c0.901-0.36,1.935-0.541,3.104-0.541c1.31,0,2.506,0.208,3.586,0.623
	c1.081,0.415,2.025,1.016,2.834,1.801L402.4,189.697z"/>
<path fill="#FFFFFF" d="M411.178,187.699c0,0.283-0.057,0.549-0.172,0.794s-0.268,0.464-0.459,0.655s-0.412,0.341-0.662,0.45
	c-0.252,0.108-0.52,0.163-0.803,0.163c-0.285,0-0.549-0.055-0.795-0.163c-0.246-0.109-0.465-0.259-0.654-0.45
	c-0.191-0.191-0.342-0.41-0.451-0.655s-0.164-0.511-0.164-0.794c0-0.284,0.055-0.555,0.164-0.811c0.109-0.257,0.26-0.48,0.451-0.672
	c0.189-0.191,0.408-0.342,0.654-0.451c0.246-0.108,0.51-0.163,0.795-0.163c0.283,0,0.551,0.055,0.803,0.163
	c0.25,0.109,0.471,0.26,0.662,0.451s0.344,0.415,0.459,0.672C411.121,187.145,411.178,187.415,411.178,187.699z M410.523,192.906
	v16.59h-2.916v-16.59H410.523z"/>
<path fill="#FFFFFF" d="M418.908,185.373v24.123h-2.916v-24.123H418.908z"/>
<path fill="#FFFFFF" d="M421.953,192.906h2.391c0.23,0,0.422,0.061,0.574,0.181s0.262,0.262,0.328,0.426l4.209,10.678
	c0.152,0.394,0.271,0.786,0.359,1.179c0.088,0.394,0.17,0.781,0.246,1.163c0.086-0.382,0.18-0.77,0.277-1.163
	c0.1-0.393,0.225-0.785,0.377-1.179l4.258-10.678c0.066-0.175,0.172-0.319,0.32-0.435c0.146-0.114,0.33-0.172,0.549-0.172h2.275
	l-6.764,16.59h-2.637L421.953,192.906z"/>
<path fill="#FFFFFF" d="M446.961,192.645c0.994,0,1.912,0.166,2.752,0.5c0.84,0.332,1.566,0.813,2.178,1.441
	c0.611,0.627,1.09,1.402,1.434,2.324c0.344,0.924,0.516,1.975,0.516,3.153c0,0.458-0.049,0.765-0.146,0.917
	c-0.1,0.152-0.285,0.229-0.557,0.229h-11.039c0.021,1.048,0.164,1.96,0.426,2.735s0.623,1.422,1.08,1.939
	c0.459,0.52,1.006,0.907,1.639,1.164c0.633,0.256,1.344,0.385,2.129,0.385c0.73,0,1.361-0.085,1.891-0.254
	c0.531-0.17,0.986-0.353,1.369-0.549c0.381-0.197,0.701-0.379,0.957-0.549s0.479-0.254,0.664-0.254c0.24,0,0.426,0.093,0.557,0.278
	l0.818,1.064c-0.359,0.437-0.791,0.816-1.293,1.138c-0.504,0.322-1.041,0.588-1.613,0.795c-0.574,0.207-1.166,0.363-1.777,0.467
	s-1.217,0.156-1.818,0.156c-1.146,0-2.203-0.195-3.168-0.582c-0.967-0.388-1.803-0.955-2.506-1.703
	c-0.705-0.748-1.254-1.674-1.646-2.775c-0.393-1.104-0.59-2.369-0.59-3.801c0-1.156,0.178-2.237,0.533-3.242
	c0.354-1.004,0.865-1.875,1.531-2.611c0.666-0.738,1.479-1.316,2.439-1.736S445.76,192.645,446.961,192.645z M447.027,194.79
	c-1.408,0-2.518,0.407-3.324,1.22c-0.809,0.814-1.311,1.941-1.508,3.383h9.023c0-0.678-0.092-1.297-0.277-1.859
	s-0.459-1.049-0.818-1.457c-0.361-0.41-0.801-0.727-1.318-0.951C448.285,194.902,447.693,194.79,447.027,194.79z"/>
<path fill="#FFFFFF" d="M457.557,209.496v-16.59h1.672c0.316,0,0.535,0.061,0.654,0.181c0.121,0.12,0.203,0.327,0.246,0.622
	l0.197,2.588c0.566-1.157,1.268-2.061,2.104-2.711c0.836-0.648,1.814-0.975,2.939-0.975c0.459,0,0.873,0.053,1.244,0.156
	s0.715,0.248,1.033,0.434l-0.377,2.178c-0.076,0.273-0.246,0.41-0.508,0.41c-0.152,0-0.389-0.052-0.705-0.156
	c-0.316-0.104-0.758-0.154-1.326-0.154c-1.016,0-1.863,0.294-2.547,0.884c-0.682,0.589-1.252,1.446-1.711,2.571v10.563H457.557z"/>
<path fill="#FFFFFF" d="M481.025,200.719v8.777h-3.162v-23.468h6.928c1.484,0,2.777,0.172,3.873,0.516
	c1.098,0.345,2.008,0.833,2.729,1.466c0.719,0.633,1.258,1.398,1.611,2.293c0.355,0.896,0.533,1.895,0.533,2.997
	c0,1.092-0.191,2.091-0.574,2.997c-0.381,0.906-0.941,1.687-1.678,2.342c-0.736,0.654-1.652,1.166-2.742,1.531
	c-1.094,0.365-2.344,0.549-3.752,0.549H481.025z M481.025,198.196h3.766c0.906,0,1.707-0.12,2.4-0.36s1.273-0.576,1.744-1.007
	c0.469-0.431,0.824-0.947,1.064-1.548c0.24-0.6,0.359-1.262,0.359-1.981c0-1.495-0.461-2.664-1.383-3.505
	c-0.924-0.84-2.318-1.262-4.186-1.262h-3.766V198.196z"/>
<path fill="#FFFFFF" d="M508.457,209.496h-1.293c-0.285,0-0.514-0.043-0.689-0.131c-0.174-0.087-0.289-0.272-0.344-0.557
	l-0.326-1.539c-0.438,0.393-0.863,0.745-1.277,1.057c-0.416,0.311-0.852,0.572-1.311,0.785s-0.947,0.375-1.467,0.483
	c-0.518,0.108-1.094,0.164-1.727,0.164c-0.645,0-1.248-0.091-1.811-0.271c-0.563-0.182-1.051-0.453-1.465-0.814
	c-0.416-0.361-0.746-0.818-0.992-1.372c-0.244-0.554-0.367-1.208-0.367-1.964c0-0.656,0.18-1.289,0.539-1.898
	c0.361-0.607,0.943-1.146,1.744-1.618c0.803-0.472,1.854-0.856,3.154-1.159c1.299-0.301,2.887-0.451,4.766-0.451v-1.303
	c0-1.296-0.277-2.275-0.828-2.941c-0.551-0.664-1.367-0.996-2.447-0.996c-0.711,0-1.309,0.09-1.795,0.27
	c-0.484,0.18-0.906,0.383-1.26,0.605c-0.355,0.225-0.662,0.426-0.918,0.606s-0.51,0.271-0.762,0.271
	c-0.195,0-0.367-0.052-0.516-0.156c-0.146-0.104-0.264-0.231-0.352-0.385l-0.523-0.934c0.916-0.884,1.904-1.545,2.963-1.98
	c1.059-0.438,2.232-0.656,3.521-0.656c0.928,0,1.752,0.153,2.473,0.459s1.326,0.731,1.818,1.277c0.49,0.547,0.861,1.207,1.113,1.982
	s0.377,1.627,0.377,2.555V209.496z M500.891,207.711c0.514,0,0.982-0.051,1.408-0.155c0.426-0.104,0.828-0.251,1.203-0.442
	c0.377-0.19,0.738-0.422,1.082-0.695s0.68-0.584,1.008-0.934v-3.423c-1.344,0-2.484,0.085-3.424,0.255
	c-0.939,0.171-1.703,0.393-2.293,0.668c-0.59,0.273-1.018,0.598-1.285,0.971c-0.268,0.375-0.4,0.791-0.4,1.252
	c0,0.439,0.07,0.818,0.213,1.137c0.141,0.318,0.332,0.58,0.572,0.783s0.523,0.352,0.852,0.444
	C500.154,207.665,500.508,207.711,500.891,207.711z"/>
<path fill="#FFFFFF" d="M512.877,209.496v-16.59h1.672c0.316,0,0.535,0.061,0.654,0.181c0.121,0.12,0.203,0.327,0.246,0.622
	l0.197,2.588c0.566-1.157,1.268-2.061,2.104-2.711c0.836-0.648,1.814-0.975,2.939-0.975c0.459,0,0.873,0.053,1.244,0.156
	s0.715,0.248,1.033,0.434l-0.377,2.178c-0.076,0.273-0.246,0.41-0.508,0.41c-0.152,0-0.389-0.052-0.705-0.156
	c-0.316-0.104-0.758-0.154-1.326-0.154c-1.016,0-1.863,0.294-2.547,0.884c-0.682,0.589-1.252,1.446-1.711,2.571v10.563H512.877z"/>
<path fill="#FFFFFF" d="M531.105,209.759c-1.311,0-2.316-0.366-3.021-1.098c-0.703-0.731-1.057-1.784-1.057-3.161v-10.153h-1.998
	c-0.174,0-0.322-0.052-0.441-0.155c-0.121-0.104-0.18-0.265-0.18-0.483v-1.163l2.719-0.344l0.67-5.126
	c0.023-0.163,0.094-0.298,0.213-0.401c0.121-0.104,0.273-0.155,0.459-0.155h1.475v5.716h4.75v2.112h-4.75v9.958
	c0,0.698,0.168,1.217,0.508,1.555c0.338,0.339,0.775,0.508,1.311,0.508c0.305,0,0.57-0.041,0.793-0.123
	c0.225-0.081,0.418-0.172,0.582-0.27s0.303-0.188,0.418-0.271c0.113-0.081,0.215-0.122,0.303-0.122c0.152,0,0.289,0.092,0.408,0.277
	l0.854,1.393c-0.504,0.47-1.109,0.838-1.818,1.105C532.59,209.625,531.859,209.759,531.105,209.759z"/>
<path fill="#FFFFFF" d="M538.295,209.496v-16.59h1.736c0.414,0,0.676,0.203,0.785,0.606l0.23,1.802
	c0.721-0.797,1.525-1.441,2.414-1.934c0.891-0.49,1.92-0.736,3.088-0.736c0.906,0,1.705,0.15,2.398,0.45
	c0.693,0.301,1.273,0.727,1.736,1.278c0.465,0.551,0.816,1.214,1.057,1.989s0.361,1.632,0.361,2.571v10.563h-2.916v-10.563
	c0-1.256-0.287-2.23-0.859-2.924c-0.574-0.693-1.449-1.039-2.629-1.039c-0.863,0-1.668,0.207-2.416,0.621
	c-0.748,0.416-1.438,0.979-2.07,1.688v12.217H538.295z"/>
<path fill="#FFFFFF" d="M563.074,192.645c0.992,0,1.91,0.166,2.752,0.5c0.84,0.332,1.566,0.813,2.178,1.441
	c0.611,0.627,1.088,1.402,1.432,2.324c0.346,0.924,0.518,1.975,0.518,3.153c0,0.458-0.051,0.765-0.148,0.917
	s-0.283,0.229-0.557,0.229h-11.037c0.021,1.048,0.162,1.96,0.426,2.735c0.262,0.775,0.621,1.422,1.08,1.939
	c0.459,0.52,1.004,0.907,1.637,1.164c0.635,0.256,1.344,0.385,2.131,0.385c0.73,0,1.361-0.085,1.891-0.254
	c0.529-0.17,0.984-0.353,1.367-0.549c0.383-0.197,0.701-0.379,0.959-0.549c0.256-0.17,0.477-0.254,0.662-0.254
	c0.24,0,0.426,0.093,0.557,0.278l0.82,1.064c-0.361,0.437-0.793,0.816-1.295,1.138c-0.502,0.322-1.039,0.588-1.613,0.795
	c-0.572,0.207-1.166,0.363-1.777,0.467s-1.217,0.156-1.816,0.156c-1.146,0-2.203-0.195-3.17-0.582
	c-0.965-0.388-1.801-0.955-2.506-1.703c-0.703-0.748-1.252-1.674-1.645-2.775c-0.395-1.104-0.59-2.369-0.59-3.801
	c0-1.156,0.178-2.237,0.531-3.242c0.355-1.004,0.865-1.875,1.531-2.611c0.666-0.738,1.48-1.316,2.441-1.736
	C560.791,192.855,561.873,192.645,563.074,192.645z M563.139,194.79c-1.408,0-2.516,0.407-3.324,1.22
	c-0.807,0.814-1.311,1.941-1.506,3.383h9.023c0-0.678-0.094-1.297-0.279-1.859s-0.457-1.049-0.818-1.457
	c-0.359-0.41-0.799-0.727-1.318-0.951C564.398,194.902,563.805,194.79,563.139,194.79z"/>
<path fill="#FFFFFF" d="M573.668,209.496v-16.59h1.672c0.316,0,0.535,0.061,0.654,0.181c0.121,0.12,0.203,0.327,0.246,0.622
	l0.197,2.588c0.566-1.157,1.268-2.061,2.104-2.711c0.836-0.648,1.814-0.975,2.939-0.975c0.459,0,0.873,0.053,1.244,0.156
	s0.715,0.248,1.033,0.434l-0.377,2.178c-0.076,0.273-0.246,0.41-0.508,0.41c-0.152,0-0.389-0.052-0.705-0.156
	c-0.316-0.104-0.758-0.154-1.326-0.154c-1.016,0-1.863,0.294-2.547,0.884c-0.682,0.589-1.252,1.446-1.711,2.571v10.563H573.668z"/>
</svg>
