<?xml version="1.0" encoding="utf-8"?>
<!-- Generator: Adobe Illustrator 15.0.0, SVG Export Plug-In . SVG Version: 6.00 Build 0)  -->
<!DOCTYPE svg PUBLIC "-//W3C//DTD SVG 1.1//EN" "http://www.w3.org/Graphics/SVG/1.1/DTD/svg11.dtd">
<svg version="1.1" id="Layer_1" xmlns="http://www.w3.org/2000/svg" xmlns:xlink="http://www.w3.org/1999/xlink" x="0px" y="0px"
	 width="800px" height="250px" viewBox="0 0 800 250" enable-background="new 0 0 800 250" xml:space="preserve">
<path fill="#A24689" d="M602.647,222.57c0,1.922-1.557,3.479-3.478,3.479H271.334c-1.922,0-3.479-1.557-3.479-3.479v-48.279
	c0-1.923,1.557-3.48,3.479-3.48H599.17c1.921,0,3.478,1.558,3.478,3.48V222.57z"/>
<g>
	<path fill="#FFFFFF" d="M305.939,204.648c0.174,0,0.333,0.072,0.475,0.213l1.245,1.359c-0.96,1.114-2.126,1.982-3.496,2.604
		c-1.371,0.622-3.022,0.934-4.954,0.934c-1.693,0-3.227-0.292-4.602-0.876c-1.376-0.584-2.549-1.403-3.521-2.457
		c-0.972-1.053-1.726-2.317-2.26-3.791c-0.535-1.475-0.802-3.096-0.802-4.864s0.287-3.39,0.859-4.864
		c0.573-1.474,1.378-2.74,2.416-3.799c1.037-1.059,2.279-1.881,3.726-2.465s3.043-0.877,4.791-0.877
		c1.725,0,3.212,0.268,4.462,0.803s2.361,1.262,3.333,2.178l-1.032,1.458c-0.077,0.109-0.164,0.2-0.262,0.271
		c-0.098,0.071-0.24,0.106-0.426,0.106c-0.142,0-0.292-0.052-0.45-0.155c-0.159-0.104-0.347-0.232-0.565-0.385
		c-0.219-0.153-0.475-0.316-0.77-0.492c-0.294-0.174-0.644-0.338-1.048-0.49c-0.404-0.153-0.874-0.281-1.409-0.386
		c-0.535-0.104-1.152-0.155-1.851-0.155c-1.255,0-2.405,0.216-3.447,0.646c-1.043,0.432-1.941,1.046-2.694,1.843
		c-0.753,0.797-1.341,1.769-1.761,2.915c-0.42,1.146-0.63,2.43-0.63,3.849c0,1.464,0.21,2.768,0.63,3.914
		c0.42,1.146,0.993,2.116,1.72,2.907c0.726,0.791,1.585,1.395,2.579,1.81s2.063,0.622,3.21,0.622c0.699,0,1.327-0.041,1.883-0.123
		c0.557-0.082,1.073-0.209,1.548-0.385c0.475-0.174,0.917-0.396,1.327-0.663c0.409-0.267,0.821-0.587,1.236-0.958
		C305.584,204.73,305.765,204.648,305.939,204.648z"/>
	<path fill="#FFFFFF" d="M318.091,192.645c1.212,0,2.307,0.202,3.284,0.605c0.977,0.404,1.807,0.978,2.489,1.721
		c0.683,0.742,1.207,1.641,1.572,2.693c0.366,1.054,0.549,2.23,0.549,3.529c0,1.311-0.183,2.489-0.549,3.537
		c-0.366,1.049-0.89,1.943-1.572,2.686c-0.682,0.743-1.512,1.313-2.489,1.712s-2.072,0.599-3.284,0.599s-2.307-0.2-3.283-0.599
		c-0.978-0.398-1.81-0.969-2.498-1.712c-0.688-0.742-1.218-1.637-1.589-2.686c-0.371-1.048-0.557-2.227-0.557-3.537
		c0-1.299,0.186-2.476,0.557-3.529c0.371-1.053,0.901-1.951,1.589-2.693c0.688-0.743,1.52-1.316,2.498-1.721
		C315.784,192.847,316.879,192.645,318.091,192.645z M318.091,207.449c1.638,0,2.86-0.549,3.668-1.646
		c0.808-1.098,1.212-2.629,1.212-4.594c0-1.976-0.404-3.516-1.212-4.618c-0.808-1.104-2.031-1.654-3.668-1.654
		c-0.83,0-1.55,0.143-2.162,0.426s-1.122,0.693-1.531,1.229c-0.409,0.535-0.715,1.192-0.917,1.973
		c-0.202,0.781-0.303,1.662-0.303,2.646c0,0.982,0.101,1.861,0.303,2.637c0.202,0.775,0.508,1.427,0.917,1.957
		c0.41,0.529,0.92,0.937,1.531,1.22C316.541,207.308,317.261,207.449,318.091,207.449z"/>
	<path fill="#FFFFFF" d="M329.588,209.496v-16.59h1.736c0.415,0,0.677,0.203,0.786,0.606l0.213,1.703
		c0.611-0.753,1.296-1.37,2.055-1.851s1.641-0.721,2.645-0.721c1.125,0,2.033,0.311,2.727,0.934
		c0.693,0.622,1.192,1.463,1.499,2.521c0.229-0.6,0.532-1.119,0.909-1.555c0.377-0.438,0.8-0.797,1.269-1.082
		c0.47-0.283,0.969-0.49,1.499-0.622c0.53-0.131,1.067-0.196,1.613-0.196c0.874,0,1.651,0.139,2.334,0.418
		c0.682,0.277,1.261,0.686,1.736,1.22c0.475,0.535,0.838,1.192,1.089,1.974s0.377,1.674,0.377,2.678v10.563h-2.915v-10.563
		c0-1.299-0.284-2.285-0.852-2.957c-0.567-0.671-1.392-1.006-2.473-1.006c-0.48,0-0.937,0.084-1.368,0.254
		c-0.431,0.169-0.811,0.417-1.138,0.744c-0.328,0.328-0.587,0.74-0.778,1.236c-0.191,0.498-0.287,1.073-0.287,1.729v10.563h-2.915
		v-10.563c0-1.332-0.268-2.326-0.803-2.98c-0.535-0.655-1.315-0.982-2.342-0.982c-0.721,0-1.39,0.193-2.006,0.58
		c-0.617,0.389-1.182,0.915-1.695,1.581v12.364H329.588z"/>
	<path fill="#FFFFFF" d="M356.479,209.496v-16.59h1.736c0.415,0,0.677,0.203,0.786,0.606l0.213,1.703
		c0.611-0.753,1.296-1.37,2.055-1.851s1.641-0.721,2.645-0.721c1.125,0,2.033,0.311,2.727,0.934
		c0.693,0.622,1.192,1.463,1.499,2.521c0.229-0.6,0.532-1.119,0.909-1.555c0.377-0.438,0.8-0.797,1.269-1.082
		c0.47-0.283,0.969-0.49,1.499-0.622c0.53-0.131,1.067-0.196,1.613-0.196c0.874,0,1.651,0.139,2.334,0.418
		c0.682,0.277,1.261,0.686,1.736,1.22c0.475,0.535,0.838,1.192,1.089,1.974s0.377,1.674,0.377,2.678v10.563h-2.915v-10.563
		c0-1.299-0.284-2.285-0.852-2.957c-0.567-0.671-1.392-1.006-2.473-1.006c-0.48,0-0.937,0.084-1.368,0.254
		c-0.431,0.169-0.811,0.417-1.138,0.744c-0.328,0.328-0.587,0.74-0.778,1.236c-0.191,0.498-0.287,1.073-0.287,1.729v10.563h-2.915
		v-10.563c0-1.332-0.268-2.326-0.803-2.98c-0.535-0.655-1.315-0.982-2.342-0.982c-0.721,0-1.39,0.193-2.006,0.58
		c-0.617,0.389-1.182,0.915-1.695,1.581v12.364H356.479z"/>
	<path fill="#FFFFFF" d="M385.892,192.906v10.58c0,1.256,0.289,2.227,0.868,2.915c0.579,0.688,1.452,1.032,2.62,1.032
		c0.852,0,1.654-0.203,2.408-0.606c0.753-0.403,1.446-0.966,2.08-1.687v-12.234h2.915v16.59h-1.736
		c-0.415,0-0.677-0.201-0.786-0.605l-0.229-1.785c-0.721,0.797-1.529,1.438-2.424,1.924c-0.896,0.486-1.922,0.729-3.079,0.729
		c-0.906,0-1.706-0.15-2.399-0.45c-0.693-0.301-1.274-0.724-1.744-1.27c-0.469-0.546-0.821-1.207-1.056-1.981
		c-0.235-0.775-0.352-1.632-0.352-2.571v-10.58H385.892z"/>
	<path fill="#FFFFFF" d="M401.582,209.496v-16.59h1.736c0.414,0,0.676,0.203,0.785,0.606l0.229,1.802
		c0.721-0.797,1.527-1.441,2.416-1.934c0.891-0.49,1.92-0.736,3.088-0.736c0.906,0,1.705,0.15,2.398,0.45
		c0.693,0.301,1.271,0.727,1.736,1.278c0.465,0.551,0.816,1.214,1.057,1.989s0.359,1.632,0.359,2.571v10.563h-2.914v-10.563
		c0-1.256-0.287-2.23-0.859-2.924c-0.574-0.693-1.449-1.039-2.629-1.039c-0.863,0-1.668,0.207-2.416,0.621
		c-0.748,0.416-1.439,0.979-2.072,1.688v12.217H401.582z"/>
	<path fill="#FFFFFF" d="M423.691,187.699c0,0.283-0.059,0.548-0.172,0.794c-0.115,0.245-0.268,0.464-0.459,0.655
		s-0.412,0.341-0.664,0.449c-0.25,0.109-0.518,0.164-0.803,0.164c-0.283,0-0.549-0.055-0.793-0.164
		c-0.246-0.108-0.465-0.258-0.656-0.449s-0.342-0.41-0.449-0.655c-0.109-0.246-0.164-0.511-0.164-0.794
		c0-0.284,0.055-0.555,0.164-0.811c0.107-0.258,0.258-0.48,0.449-0.672s0.41-0.342,0.656-0.451c0.244-0.108,0.51-0.163,0.793-0.163
		c0.285,0,0.553,0.055,0.803,0.163c0.252,0.109,0.473,0.26,0.664,0.451s0.344,0.414,0.459,0.672
		C423.633,187.145,423.691,187.415,423.691,187.699z M423.035,192.906v16.59h-2.914v-16.59H423.035z"/>
	<path fill="#FFFFFF" d="M433.205,209.759c-1.311,0-2.316-0.366-3.021-1.098c-0.703-0.731-1.057-1.784-1.057-3.161v-10.153h-1.998
		c-0.174,0-0.322-0.052-0.441-0.155c-0.121-0.104-0.18-0.265-0.18-0.483v-1.163l2.719-0.344l0.67-5.126
		c0.023-0.163,0.094-0.298,0.213-0.401c0.121-0.104,0.273-0.155,0.459-0.155h1.475v5.716h4.75v2.112h-4.75v9.958
		c0,0.698,0.168,1.217,0.508,1.555c0.338,0.339,0.775,0.508,1.311,0.508c0.305,0,0.57-0.041,0.793-0.123
		c0.225-0.081,0.418-0.172,0.582-0.27s0.303-0.188,0.418-0.271c0.113-0.081,0.215-0.122,0.303-0.122c0.152,0,0.289,0.092,0.41,0.277
		l0.852,1.393c-0.504,0.47-1.109,0.838-1.818,1.105C434.689,209.625,433.959,209.759,433.205,209.759z"/>
	<path fill="#FFFFFF" d="M445.258,214.394c-0.098,0.218-0.221,0.394-0.367,0.524c-0.148,0.131-0.375,0.195-0.68,0.195h-2.162
		l3.029-6.583l-6.846-15.624h2.521c0.252,0,0.449,0.063,0.59,0.188c0.143,0.126,0.246,0.265,0.313,0.418l4.438,10.448
		c0.098,0.24,0.184,0.48,0.254,0.721s0.133,0.486,0.188,0.736c0.076-0.25,0.154-0.496,0.23-0.736s0.164-0.486,0.262-0.736
		l4.307-10.433c0.066-0.175,0.178-0.319,0.336-0.435c0.158-0.114,0.33-0.172,0.516-0.172h2.326L445.258,214.394z"/>
	<path fill="#FFFFFF" d="M475.893,201.84c0.113,0.29,0.227,0.582,0.336,0.877c0.107-0.306,0.223-0.598,0.344-0.877
		c0.119-0.277,0.256-0.559,0.408-0.843l7.943-14.429c0.143-0.251,0.289-0.403,0.441-0.459c0.154-0.054,0.371-0.081,0.656-0.081
		h2.342v23.468h-2.785v-17.244c0-0.23,0.006-0.476,0.018-0.737c0.01-0.263,0.027-0.53,0.049-0.803l-8.041,14.674
		c-0.273,0.491-0.654,0.737-1.146,0.737h-0.459c-0.49,0-0.873-0.246-1.146-0.737l-8.221-14.723c0.033,0.284,0.057,0.563,0.074,0.835
		c0.016,0.273,0.023,0.523,0.023,0.754v17.244h-2.783v-23.468h2.342c0.283,0,0.502,0.027,0.654,0.081
		c0.152,0.056,0.301,0.208,0.443,0.459l8.105,14.445C475.643,201.275,475.777,201.551,475.893,201.84z"/>
	<path fill="#FFFFFF" d="M500.188,192.645c0.992,0,1.91,0.166,2.752,0.5c0.84,0.332,1.566,0.813,2.178,1.441
		c0.611,0.627,1.088,1.402,1.432,2.324c0.346,0.924,0.518,1.975,0.518,3.153c0,0.458-0.051,0.765-0.148,0.917
		s-0.283,0.229-0.557,0.229h-11.037c0.021,1.048,0.162,1.96,0.426,2.735c0.262,0.775,0.621,1.422,1.08,1.939
		c0.459,0.52,1.004,0.907,1.637,1.164c0.635,0.256,1.344,0.385,2.131,0.385c0.73,0,1.361-0.085,1.891-0.254
		c0.529-0.17,0.984-0.353,1.367-0.549c0.383-0.197,0.701-0.379,0.959-0.549c0.256-0.17,0.477-0.254,0.662-0.254
		c0.24,0,0.426,0.093,0.557,0.278l0.82,1.064c-0.361,0.437-0.793,0.816-1.295,1.138c-0.502,0.322-1.039,0.588-1.613,0.795
		c-0.572,0.207-1.166,0.363-1.777,0.467s-1.217,0.156-1.816,0.156c-1.146,0-2.203-0.195-3.17-0.582
		c-0.965-0.388-1.801-0.955-2.506-1.703c-0.703-0.748-1.252-1.674-1.645-2.775c-0.395-1.104-0.59-2.369-0.59-3.801
		c0-1.156,0.178-2.237,0.531-3.242c0.355-1.004,0.865-1.875,1.531-2.611c0.666-0.738,1.48-1.316,2.441-1.736
		C497.904,192.855,498.986,192.645,500.188,192.645z M500.252,194.79c-1.408,0-2.516,0.407-3.324,1.22
		c-0.807,0.814-1.311,1.941-1.506,3.383h9.023c0-0.678-0.094-1.297-0.279-1.859s-0.457-1.049-0.818-1.457
		c-0.359-0.41-0.799-0.727-1.318-0.951C501.512,194.902,500.918,194.79,500.252,194.79z"/>
	<path fill="#FFFFFF" d="M510.781,209.496v-16.59h1.736c0.416,0,0.678,0.203,0.787,0.606l0.213,1.703
		c0.611-0.753,1.297-1.37,2.055-1.851c0.76-0.48,1.641-0.721,2.645-0.721c1.125,0,2.033,0.311,2.727,0.934
		c0.693,0.622,1.193,1.463,1.5,2.521c0.229-0.6,0.531-1.119,0.908-1.555c0.377-0.438,0.799-0.797,1.27-1.082
		c0.469-0.283,0.969-0.49,1.498-0.622c0.529-0.131,1.066-0.196,1.613-0.196c0.873,0,1.65,0.139,2.334,0.418
		c0.682,0.277,1.262,0.686,1.736,1.22c0.475,0.535,0.838,1.192,1.088,1.974c0.252,0.781,0.377,1.674,0.377,2.678v10.563h-2.914
		v-10.563c0-1.299-0.285-2.285-0.852-2.957c-0.568-0.671-1.393-1.006-2.475-1.006c-0.48,0-0.936,0.084-1.367,0.254
		c-0.432,0.169-0.811,0.417-1.137,0.744c-0.328,0.328-0.588,0.74-0.779,1.236c-0.191,0.498-0.285,1.073-0.285,1.729v10.563h-2.916
		v-10.563c0-1.332-0.268-2.326-0.803-2.98c-0.535-0.655-1.316-0.982-2.342-0.982c-0.721,0-1.389,0.193-2.006,0.58
		c-0.617,0.389-1.182,0.915-1.695,1.581v12.364H510.781z"/>
	<path fill="#FFFFFF" d="M537.771,209.496v-24.123h2.932v9.925c0.688-0.797,1.477-1.438,2.367-1.925
		c0.889-0.485,1.908-0.729,3.055-0.729c0.961,0,1.828,0.18,2.604,0.541c0.775,0.359,1.436,0.897,1.98,1.613
		c0.547,0.715,0.967,1.599,1.262,2.652s0.443,2.268,0.443,3.645c0,1.223-0.164,2.36-0.492,3.414s-0.801,1.965-1.416,2.734
		c-0.617,0.771-1.371,1.377-2.26,1.818c-0.891,0.442-1.893,0.664-3.006,0.664c-1.07,0-1.979-0.208-2.727-0.623
		c-0.748-0.414-1.4-0.993-1.957-1.736l-0.148,1.507c-0.088,0.415-0.338,0.622-0.752,0.622H537.771z M545.174,194.971
		c-0.949,0-1.781,0.218-2.496,0.654c-0.717,0.438-1.373,1.054-1.975,1.851v8.024c0.525,0.721,1.105,1.229,1.744,1.523
		s1.352,0.442,2.137,0.442c1.551,0,2.742-0.552,3.57-1.654c0.83-1.103,1.246-2.675,1.246-4.716c0-1.082-0.096-2.01-0.287-2.785
		c-0.191-0.774-0.467-1.41-0.826-1.907c-0.361-0.497-0.803-0.86-1.328-1.089C546.436,195.085,545.84,194.971,545.174,194.971z"/>
	<path fill="#FFFFFF" d="M562.551,192.645c0.992,0,1.91,0.166,2.752,0.5c0.84,0.332,1.566,0.813,2.178,1.441
		c0.611,0.627,1.088,1.402,1.432,2.324c0.346,0.924,0.518,1.975,0.518,3.153c0,0.458-0.051,0.765-0.148,0.917
		s-0.283,0.229-0.557,0.229h-11.037c0.021,1.048,0.162,1.96,0.426,2.735c0.262,0.775,0.621,1.422,1.08,1.939
		c0.459,0.52,1.004,0.907,1.637,1.164c0.635,0.256,1.344,0.385,2.131,0.385c0.73,0,1.361-0.085,1.891-0.254
		c0.529-0.17,0.984-0.353,1.367-0.549c0.383-0.197,0.701-0.379,0.959-0.549c0.256-0.17,0.477-0.254,0.662-0.254
		c0.24,0,0.426,0.093,0.557,0.278l0.82,1.064c-0.361,0.437-0.793,0.816-1.295,1.138c-0.502,0.322-1.039,0.588-1.613,0.795
		c-0.572,0.207-1.166,0.363-1.777,0.467s-1.217,0.156-1.816,0.156c-1.146,0-2.203-0.195-3.17-0.582
		c-0.965-0.388-1.801-0.955-2.506-1.703c-0.703-0.748-1.252-1.674-1.645-2.775c-0.395-1.104-0.59-2.369-0.59-3.801
		c0-1.156,0.178-2.237,0.531-3.242c0.355-1.004,0.865-1.875,1.531-2.611c0.666-0.738,1.48-1.316,2.441-1.736
		C560.268,192.855,561.35,192.645,562.551,192.645z M562.615,194.79c-1.408,0-2.516,0.407-3.324,1.22
		c-0.807,0.814-1.311,1.941-1.506,3.383h9.023c0-0.678-0.094-1.297-0.279-1.859s-0.457-1.049-0.818-1.457
		c-0.359-0.41-0.799-0.727-1.318-0.951C563.875,194.902,563.281,194.79,562.615,194.79z"/>
	<path fill="#FFFFFF" d="M573.145,209.496v-16.59h1.672c0.316,0,0.535,0.061,0.654,0.181c0.121,0.12,0.203,0.327,0.246,0.622
		l0.197,2.588c0.566-1.157,1.268-2.061,2.104-2.711c0.836-0.649,1.814-0.975,2.939-0.975c0.459,0,0.873,0.053,1.244,0.156
		s0.715,0.248,1.033,0.434l-0.377,2.178c-0.076,0.273-0.246,0.41-0.508,0.41c-0.152,0-0.389-0.052-0.705-0.156
		c-0.316-0.104-0.758-0.155-1.326-0.155c-1.016,0-1.863,0.295-2.547,0.885c-0.682,0.589-1.252,1.446-1.711,2.571v10.563H573.145z"/>
</g>
<path fill="#A24689" d="M246.053,55.211c6.615,0,12.862,1.313,18.737,3.947c5.873,2.636,11.039,6.18,15.496,10.636
	c4.456,4.456,8.001,9.658,10.634,15.598c2.633,5.943,3.95,12.291,3.95,19.042c0,6.753-1.284,13.064-3.849,18.94
	c-2.566,5.872-6.044,11.037-10.431,15.493c-4.39,4.46-9.556,7.973-15.496,10.536c-5.944,2.562-12.357,3.847-19.244,3.847
	c-6.754,0-13.1-1.213-19.041-3.645c-5.943-2.432-11.141-5.839-15.597-10.229c-4.456-4.389-7.969-9.554-10.533-15.497
	c-2.566-5.939-3.849-12.422-3.849-19.445c0-6.75,1.247-13.065,3.748-18.939c2.497-5.876,5.974-11.006,10.432-15.397
	c4.456-4.387,9.688-7.899,15.698-10.532C232.716,56.932,239.166,55.483,246.053,55.211z M245.85,75.265
	c-3.918,0-7.665,0.744-11.243,2.229c-3.578,1.487-6.684,3.545-9.316,6.176c-2.634,2.634-4.729,5.707-6.281,9.217
	c-1.554,3.514-2.329,7.361-2.329,11.547c0,3.919,0.775,7.664,2.329,11.242c1.552,3.579,3.647,6.72,6.281,9.42
	c2.632,2.701,5.738,4.83,9.316,6.378c3.578,1.553,7.325,2.332,11.243,2.332c3.916,0,7.663-0.779,11.242-2.332
	c3.578-1.549,6.686-3.678,9.319-6.378c2.633-2.701,4.725-5.841,6.279-9.42c1.551-3.578,2.33-7.323,2.33-11.242
	c-0.405-7.968-3.242-14.686-8.508-20.157c-5.266-5.467-12.087-8.473-20.459-9.012H245.85z"/>
<path fill="#8F8F8F" d="M387.036,23.99c2.295-0.133,4.457,0.778,6.483,2.735c2.026,1.959,3.038,4.084,3.038,6.379v71.101
	c0,6.62-1.351,12.898-4.051,18.838c-2.703,5.943-6.35,11.141-10.94,15.598c-4.592,4.455-9.823,8-15.698,10.634
	c-5.874,2.634-12.052,3.952-18.534,3.952c-6.618,0-12.898-1.283-18.838-3.85c-5.945-2.564-11.141-6.078-15.597-10.535
	c-4.456-4.455-8.002-9.653-10.635-15.597c-2.634-5.939-3.95-12.288-3.95-19.04c0-7.292,1.181-13.705,3.545-19.244
	c2.362-5.535,5.905-10.734,10.635-15.597v0.202c4.995-4.726,10.499-8.303,16.508-10.734c6.007-2.431,12.186-3.647,18.534-3.647
	c3.78,0,8.271,0.607,13.472,1.824c5.197,1.214,10.362,3.58,15.496,7.088V34.118c0-1.348,0.269-2.633,0.81-3.849
	c0.537-1.216,1.247-2.329,2.127-3.343c0.876-1.011,1.924-1.786,3.139-2.329c1.216-0.537,2.43-0.739,3.646-0.606H387.036z
	 M376.504,104.205c0-3.647-0.78-7.222-2.33-10.736c-1.554-3.51-3.682-6.648-6.38-9.419c-2.703-2.767-5.809-4.963-9.319-6.583
	c-3.513-1.622-7.226-2.429-11.141-2.429c-3.917,0-7.666,0.776-11.242,2.327c-3.58,1.555-6.684,3.645-9.318,6.278
	c-2.633,2.634-4.729,5.741-6.28,9.319c-1.554,3.58-2.328,7.327-2.328,11.243c0,4.052,0.774,7.833,2.328,11.344
	c1.552,3.514,3.647,6.583,6.28,9.216c2.634,2.633,5.738,4.73,9.318,6.279c3.577,1.555,7.325,2.331,11.242,2.331
	c3.916,0,7.628-0.776,11.141-2.331c3.51-1.549,6.616-3.646,9.319-6.279c2.698-2.633,4.826-5.702,6.38-9.216
	C375.724,112.039,376.504,108.257,376.504,104.205z"/>
<path fill="#8F8F8F" d="M451.452,55.211c6.613,0,12.861,1.313,18.735,3.947c5.876,2.636,11.041,6.18,15.497,10.636
	s8.001,9.658,10.634,15.598c2.632,5.943,3.95,12.291,3.95,19.042c0,6.753-1.285,13.064-3.848,18.94
	c-2.568,5.872-6.048,11.037-10.432,15.493c-4.392,4.46-9.559,7.973-15.498,10.536c-5.943,2.562-12.356,3.847-19.244,3.847
	c-6.754,0-13.101-1.213-19.042-3.645s-11.139-5.839-15.597-10.229c-4.454-4.389-7.969-9.554-10.532-15.497
	c-2.566-5.939-3.848-12.422-3.848-19.445c0-6.75,1.247-13.065,3.747-18.939c2.497-5.876,5.975-11.006,10.433-15.397
	c4.454-4.387,9.688-7.899,15.697-10.532C438.114,56.932,444.563,55.483,451.452,55.211z M451.247,75.265
	c-3.916,0-7.665,0.744-11.241,2.229c-3.579,1.487-6.685,3.545-9.316,6.176c-2.636,2.634-4.729,5.707-6.28,9.217
	c-1.555,3.514-2.329,7.361-2.329,11.547c0,3.919,0.774,7.664,2.329,11.242c1.551,3.579,3.645,6.72,6.28,9.42
	c2.632,2.701,5.737,4.83,9.316,6.378c3.576,1.553,7.325,2.332,11.241,2.332c3.915,0,7.664-0.779,11.241-2.332
	c3.58-1.549,6.688-3.678,9.321-6.378c2.632-2.701,4.724-5.841,6.278-9.42c1.551-3.578,2.331-7.323,2.331-11.242
	c-0.406-7.968-3.244-14.686-8.51-20.157c-5.265-5.467-12.087-8.473-20.457-9.012H451.247z"/>
<path fill="#8F8F8F" d="M554.352,55.211c6.616,0,12.864,1.313,18.74,3.947c5.871,2.636,11.036,6.18,15.495,10.636
	c4.455,4.456,8,9.658,10.632,15.598c2.636,5.943,3.951,12.291,3.951,19.042c0,6.753-1.285,13.064-3.849,18.94
	c-2.566,5.872-6.046,11.037-10.433,15.493c-4.389,4.46-9.554,7.973-15.495,10.536c-5.945,2.562-12.356,3.847-19.244,3.847
	c-6.752,0-13.101-1.213-19.04-3.645c-5.945-2.432-11.143-5.839-15.597-10.229c-4.458-4.389-7.971-9.554-10.535-15.497
	c-2.565-5.939-3.849-12.422-3.849-19.445c0-6.75,1.246-13.065,3.747-18.939c2.499-5.876,5.977-11.006,10.432-15.397
	c4.459-4.387,9.689-7.899,15.7-10.532C541.015,56.932,547.465,55.483,554.352,55.211z M554.149,75.265
	c-3.917,0-7.666,0.744-11.243,2.229c-3.579,1.487-6.686,3.545-9.316,6.176c-2.634,2.634-4.729,5.707-6.281,9.217
	c-1.553,3.514-2.329,7.361-2.329,11.547c0,3.919,0.776,7.664,2.329,11.242c1.553,3.579,3.647,6.72,6.281,9.42
	c2.631,2.701,5.737,4.83,9.316,6.378c3.577,1.553,7.326,2.332,11.243,2.332s7.664-0.779,11.243-2.332
	c3.576-1.549,6.686-3.678,9.317-6.378c2.633-2.701,4.726-5.841,6.28-9.42c1.551-3.578,2.329-7.323,2.329-11.242
	c-0.404-7.968-3.24-14.686-8.508-20.157c-5.267-5.467-12.087-8.473-20.46-9.012H554.149z"/>
</svg>
