<?xml version="1.0" encoding="utf-8"?>
<!-- Generator: Adobe Illustrator 15.0.0, SVG Export Plug-In . SVG Version: 6.00 Build 0)  -->
<!DOCTYPE svg PUBLIC "-//W3C//DTD SVG 1.1//EN" "http://www.w3.org/Graphics/SVG/1.1/DTD/svg11.dtd">
<svg version="1.1" id="Layer_1" xmlns="http://www.w3.org/2000/svg" xmlns:xlink="http://www.w3.org/1999/xlink" x="0px" y="0px"
	 width="800px" height="250px" viewBox="0 0 800 250" enable-background="new 0 0 800 250" xml:space="preserve">
<path fill="#A24689" d="M246.053,55.211c6.615,0,12.862,1.314,18.737,3.948c5.873,2.636,11.038,6.181,15.496,10.636
	c4.456,4.456,8.001,9.658,10.633,15.597c2.636,5.944,3.952,12.292,3.952,19.042c0,6.752-1.284,13.064-3.851,18.939
	c-2.565,5.872-6.043,11.038-10.432,15.493c-4.389,4.46-9.554,7.973-15.495,10.537c-5.944,2.562-12.356,3.847-19.244,3.847
	c-6.753,0-13.1-1.214-19.041-3.646c-5.943-2.432-11.141-5.839-15.597-10.229c-4.457-4.389-7.97-9.554-10.534-15.497
	c-2.566-5.94-3.848-12.423-3.848-19.444c0-6.751,1.246-13.066,3.748-18.94c2.496-5.875,5.974-11.006,10.431-15.396
	c4.456-4.387,9.688-7.899,15.699-10.533C232.715,56.932,239.165,55.482,246.053,55.211z M245.85,75.265
	c-3.918,0-7.665,0.744-11.242,2.229c-3.578,1.488-6.685,3.545-9.317,6.176c-2.634,2.633-4.729,5.707-6.28,9.216
	c-1.554,3.514-2.329,7.361-2.329,11.548c0,3.918,0.775,7.664,2.329,11.241c1.552,3.579,3.646,6.72,6.28,9.42
	c2.633,2.701,5.739,4.83,9.317,6.378c3.577,1.553,7.324,2.332,11.242,2.332c3.916,0,7.662-0.779,11.242-2.332
	c3.578-1.549,6.687-3.678,9.319-6.378s4.725-5.841,6.279-9.42c1.551-3.578,2.329-7.323,2.329-11.241
	c-0.405-7.968-3.24-14.687-8.508-20.158c-5.266-5.467-12.087-8.473-20.459-9.012H245.85z"/>
<path fill="#8F8F8F" d="M387.036,23.99c2.297-0.133,4.458,0.778,6.482,2.735c2.024,1.959,3.038,4.084,3.038,6.378v71.102
	c0,6.62-1.351,12.898-4.05,18.837c-2.705,5.943-6.35,11.141-10.94,15.598c-4.591,4.455-9.823,8-15.697,10.635
	c-5.876,2.633-12.055,3.951-18.535,3.951c-6.617,0-12.898-1.283-18.838-3.85c-5.945-2.564-11.143-6.078-15.597-10.535
	c-4.459-4.455-8.004-9.653-10.637-15.597c-2.632-5.939-3.95-12.288-3.95-19.04c0-7.292,1.182-13.706,3.545-19.245
	c2.362-5.535,5.905-10.734,10.637-15.597v0.203c4.993-4.727,10.498-8.304,16.509-10.735c6.007-2.431,12.186-3.646,18.533-3.646
	c3.779,0,8.271,0.606,13.471,1.825c5.197,1.213,10.362,3.579,15.497,7.087V34.118c0-1.349,0.267-2.634,0.812-3.849
	c0.534-1.216,1.245-2.33,2.124-3.343c0.879-1.011,1.925-1.786,3.141-2.329c1.215-0.537,2.43-0.74,3.646-0.606H387.036z
	 M376.504,104.206c0-3.647-0.778-7.223-2.331-10.737c-1.554-3.51-3.682-6.648-6.379-9.418c-2.703-2.766-5.809-4.962-9.318-6.583
	c-3.513-1.622-7.225-2.429-11.142-2.429s-7.666,0.776-11.241,2.327c-3.58,1.555-6.686,3.646-9.319,6.279
	c-2.633,2.634-4.729,5.741-6.28,9.318c-1.555,3.58-2.327,7.327-2.327,11.244c0,4.051,0.772,7.833,2.327,11.343
	c1.551,3.514,3.647,6.583,6.28,9.216c2.634,2.633,5.739,4.729,9.319,6.279c3.575,1.555,7.324,2.331,11.241,2.331
	s7.629-0.776,11.142-2.331c3.51-1.55,6.615-3.646,9.318-6.279c2.697-2.634,4.825-5.702,6.379-9.216
	C375.726,112.039,376.504,108.256,376.504,104.206z"/>
<path fill="#8F8F8F" d="M451.451,55.211c6.614,0,12.861,1.314,18.736,3.948c5.876,2.636,11.041,6.181,15.496,10.636
	c4.457,4.456,8.001,9.658,10.636,15.597c2.632,5.944,3.949,12.292,3.949,19.042c0,6.752-1.286,13.064-3.849,18.939
	c-2.567,5.872-6.047,11.038-10.431,15.493c-4.392,4.46-9.559,7.973-15.498,10.537c-5.943,2.562-12.356,3.847-19.244,3.847
	c-6.754,0-13.101-1.214-19.041-3.646c-5.942-2.432-11.14-5.839-15.599-10.229c-4.453-4.389-7.968-9.554-10.531-15.497
	c-2.566-5.94-3.848-12.423-3.848-19.444c0-6.751,1.246-13.066,3.747-18.94c2.497-5.875,5.974-11.006,10.433-15.396
	c4.453-4.387,9.688-7.899,15.696-10.533C438.114,56.932,444.563,55.482,451.451,55.211z M451.247,75.265
	c-3.916,0-7.666,0.744-11.241,2.229c-3.579,1.488-6.685,3.545-9.316,6.176c-2.636,2.633-4.729,5.707-6.281,9.216
	c-1.555,3.514-2.328,7.361-2.328,11.548c0,3.918,0.773,7.664,2.328,11.241c1.552,3.579,3.646,6.72,6.281,9.42
	c2.632,2.701,5.737,4.83,9.316,6.378c3.575,1.553,7.325,2.332,11.241,2.332c3.915,0,7.664-0.779,11.242-2.332
	c3.579-1.549,6.687-3.678,9.32-6.378c2.632-2.701,4.723-5.841,6.278-9.42c1.551-3.578,2.331-7.323,2.331-11.241
	c-0.406-7.968-3.244-14.687-8.51-20.158c-5.265-5.467-12.087-8.473-20.458-9.012H451.247z"/>
<path fill="#8F8F8F" d="M554.353,55.211c6.615,0,12.863,1.314,18.738,3.948c5.872,2.636,11.037,6.181,15.495,10.636
	c4.457,4.456,8.001,9.658,10.633,15.597c2.636,5.944,3.951,12.292,3.951,19.042c0,6.752-1.285,13.064-3.849,18.939
	c-2.566,5.872-6.046,11.038-10.433,15.493c-4.389,4.46-9.554,7.973-15.495,10.537c-5.944,2.562-12.356,3.847-19.243,3.847
	c-6.753,0-13.101-1.214-19.041-3.646c-5.946-2.432-11.143-5.839-15.597-10.229c-4.458-4.389-7.97-9.554-10.535-15.497
	c-2.565-5.94-3.85-12.423-3.85-19.444c0-6.751,1.247-13.066,3.748-18.94c2.499-5.875,5.977-11.006,10.432-15.396
	c4.459-4.387,9.689-7.899,15.7-10.533C541.015,56.932,547.464,55.482,554.353,55.211z M554.15,75.265
	c-3.918,0-7.667,0.744-11.244,2.229c-3.579,1.488-6.685,3.545-9.316,6.176c-2.634,2.633-4.729,5.707-6.28,9.216
	c-1.553,3.514-2.329,7.361-2.329,11.548c0,3.918,0.776,7.664,2.329,11.241c1.552,3.579,3.646,6.72,6.28,9.42
	c2.632,2.701,5.737,4.83,9.316,6.378c3.577,1.553,7.326,2.332,11.244,2.332c3.915,0,7.663-0.779,11.242-2.332
	c3.576-1.549,6.687-3.678,9.316-6.378c2.635-2.701,4.726-5.841,6.281-9.42c1.551-3.578,2.329-7.323,2.329-11.241
	c-0.404-7.968-3.24-14.687-8.508-20.158c-5.268-5.467-12.087-8.473-20.459-9.012H554.15z"/>
<path fill="#E4A900" d="M603.17,222.57c0,1.922-1.557,3.479-3.478,3.479H382.741c-1.921,0-3.477-1.557-3.477-3.479v-48.279
	c0-1.923,1.556-3.48,3.477-3.48h216.951c1.921,0,3.478,1.558,3.478,3.48V222.57z"/>
<path fill="#FFFFFF" d="M412.733,207.189c0.633,0,1.215-0.029,1.744-0.09c0.529-0.06,1.029-0.15,1.499-0.27
	c0.469-0.121,0.911-0.266,1.326-0.435s0.83-0.362,1.245-0.581v-5.176h-3.636c-0.208,0-0.374-0.06-0.5-0.18s-0.188-0.268-0.188-0.442
	v-1.802h7.206v9.008c-0.59,0.426-1.203,0.797-1.842,1.113c-0.64,0.316-1.321,0.582-2.048,0.795
	c-0.726,0.213-1.504,0.371-2.334,0.475c-0.829,0.104-1.73,0.156-2.702,0.156c-1.703,0-3.265-0.293-4.684-0.877
	s-2.643-1.402-3.668-2.457c-1.026-1.053-1.826-2.316-2.399-3.791c-0.573-1.474-0.86-3.096-0.86-4.863
	c0-1.791,0.281-3.424,0.844-4.897s1.364-2.737,2.407-3.791s2.304-1.87,3.783-2.448s3.137-0.868,4.971-0.868
	c0.928,0,1.79,0.068,2.588,0.204c0.797,0.137,1.536,0.334,2.219,0.59c0.683,0.257,1.313,0.568,1.892,0.934
	c0.578,0.366,1.119,0.778,1.621,1.236l-0.9,1.441c-0.186,0.295-0.426,0.442-0.721,0.442c-0.175,0-0.366-0.06-0.573-0.181
	c-0.273-0.152-0.579-0.338-0.917-0.557c-0.339-0.218-0.751-0.428-1.236-0.631c-0.486-0.201-1.06-0.373-1.72-0.516
	c-0.661-0.142-1.444-0.213-2.351-0.213c-1.321,0-2.517,0.217-3.586,0.647c-1.07,0.431-1.982,1.048-2.735,1.851
	s-1.332,1.774-1.736,2.915c-0.403,1.142-0.605,2.421-0.605,3.841c0,1.484,0.21,2.809,0.63,3.971
	c0.421,1.163,1.013,2.148,1.777,2.957c0.764,0.808,1.671,1.424,2.719,1.85S411.467,207.189,412.733,207.189z"/>
<path fill="#FFFFFF" d="M432.565,192.646c1.212,0,2.307,0.203,3.284,0.606c0.977,0.403,1.807,0.978,2.489,1.72
	c0.682,0.742,1.206,1.641,1.572,2.693c0.365,1.055,0.548,2.23,0.548,3.529c0,1.311-0.183,2.49-0.548,3.538
	c-0.366,1.048-0.891,1.943-1.572,2.686c-0.683,0.743-1.513,1.313-2.489,1.712c-0.978,0.398-2.072,0.598-3.284,0.598
	s-2.307-0.199-3.283-0.598c-0.978-0.398-1.81-0.969-2.498-1.712c-0.688-0.742-1.217-1.638-1.588-2.686
	c-0.372-1.048-0.558-2.228-0.558-3.538c0-1.299,0.186-2.475,0.558-3.529c0.371-1.053,0.9-1.951,1.588-2.693
	c0.688-0.742,1.521-1.316,2.498-1.72C430.259,192.85,431.354,192.646,432.565,192.646z M432.565,207.451
	c1.638,0,2.86-0.548,3.669-1.645c0.808-1.098,1.212-2.629,1.212-4.594c0-1.977-0.404-3.516-1.212-4.619
	c-0.809-1.103-2.031-1.654-3.669-1.654c-0.83,0-1.55,0.143-2.161,0.426c-0.612,0.284-1.122,0.693-1.531,1.229
	c-0.41,0.535-0.716,1.193-0.918,1.974s-0.303,1.662-0.303,2.646c0,0.982,0.101,1.861,0.303,2.637
	c0.202,0.774,0.508,1.427,0.918,1.957c0.409,0.529,0.919,0.936,1.531,1.219C431.016,207.311,431.735,207.451,432.565,207.451z"/>
<path fill="#FFFFFF" d="M447.306,185.375v24.124h-2.915v-24.124H447.306z"/>
<path fill="#FFFFFF" d="M464.125,209.499c-0.415,0-0.678-0.202-0.786-0.606l-0.263-2.014c-0.71,0.862-1.521,1.553-2.432,2.071
	c-0.912,0.519-1.957,0.778-3.137,0.778c-0.949,0-1.813-0.184-2.587-0.549c-0.775-0.365-1.437-0.903-1.981-1.613
	c-0.547-0.709-0.967-1.594-1.262-2.652c-0.295-1.06-0.442-2.277-0.442-3.652c0-1.223,0.164-2.361,0.492-3.415
	c0.327-1.054,0.799-1.968,1.416-2.743s1.367-1.384,2.252-1.826c0.885-0.441,1.889-0.663,3.014-0.663
	c1.016,0,1.883,0.172,2.604,0.516c0.721,0.345,1.365,0.827,1.933,1.45v-9.205h2.915v24.124H464.125z M458.475,207.37
	c0.95,0,1.782-0.218,2.497-0.655c0.715-0.437,1.373-1.053,1.974-1.851v-8.024c-0.535-0.721-1.122-1.226-1.761-1.516
	c-0.639-0.289-1.346-0.434-2.12-0.434c-1.551,0-2.741,0.551-3.57,1.654c-0.83,1.103-1.245,2.675-1.245,4.717
	c0,1.08,0.093,2.006,0.278,2.775s0.459,1.403,0.819,1.9c0.36,0.496,0.803,0.859,1.326,1.088
	C457.197,207.256,457.798,207.37,458.475,207.37z"/>
<path fill="#FFFFFF" d="M481.025,200.721v8.778h-3.161v-23.468h6.928c1.485,0,2.776,0.172,3.873,0.516
	c1.098,0.344,2.007,0.832,2.728,1.465c0.72,0.634,1.258,1.398,1.612,2.293c0.355,0.896,0.533,1.895,0.533,2.998
	c0,1.092-0.191,2.09-0.573,2.996c-0.383,0.906-0.942,1.688-1.679,2.342c-0.737,0.655-1.652,1.166-2.743,1.531
	c-1.093,0.366-2.343,0.549-3.751,0.549H481.025z M481.025,198.199h3.767c0.906,0,1.706-0.121,2.399-0.361
	c0.693-0.239,1.274-0.575,1.744-1.007c0.47-0.431,0.824-0.946,1.064-1.548c0.24-0.6,0.36-1.261,0.36-1.98
	c0-1.496-0.461-2.664-1.384-3.506c-0.923-0.84-2.317-1.261-4.185-1.261h-3.767V198.199z"/>
<path fill="#FFFFFF" d="M508.457,209.499h-1.293c-0.284,0-0.514-0.044-0.688-0.131s-0.289-0.272-0.344-0.558l-0.327-1.539
	c-0.438,0.393-0.863,0.746-1.277,1.057c-0.415,0.311-0.852,0.573-1.311,0.786s-0.947,0.374-1.466,0.483
	c-0.519,0.108-1.095,0.164-1.728,0.164c-0.645,0-1.248-0.092-1.81-0.271c-0.563-0.181-1.051-0.452-1.466-0.813
	c-0.415-0.362-0.745-0.819-0.991-1.372c-0.245-0.554-0.368-1.209-0.368-1.965c0-0.656,0.18-1.289,0.54-1.897
	s0.942-1.147,1.744-1.618c0.803-0.472,1.854-0.857,3.153-1.159c1.299-0.302,2.888-0.452,4.766-0.452v-1.302
	c0-1.296-0.276-2.276-0.827-2.941c-0.552-0.665-1.368-0.997-2.448-0.997c-0.71,0-1.308,0.09-1.794,0.27
	c-0.485,0.181-0.906,0.383-1.261,0.606s-0.661,0.426-0.917,0.606c-0.257,0.18-0.511,0.27-0.762,0.27
	c-0.196,0-0.368-0.051-0.516-0.155c-0.147-0.104-0.265-0.231-0.353-0.385l-0.523-0.934c0.917-0.884,1.904-1.545,2.964-1.981
	c1.059-0.438,2.232-0.655,3.521-0.655c0.928,0,1.752,0.153,2.473,0.458c0.721,0.307,1.326,0.732,1.817,1.277
	c0.491,0.547,0.862,1.207,1.114,1.982c0.251,0.775,0.376,1.627,0.376,2.555V209.499z M500.892,207.714
	c0.513,0,0.982-0.052,1.408-0.155s0.827-0.252,1.203-0.442c0.377-0.19,0.737-0.423,1.081-0.696c0.345-0.272,0.68-0.584,1.008-0.934
	v-3.422c-1.343,0-2.484,0.084-3.423,0.255c-0.939,0.171-1.703,0.393-2.293,0.667s-1.019,0.599-1.286,0.972
	c-0.268,0.374-0.4,0.791-0.4,1.252c0,0.439,0.07,0.818,0.213,1.137c0.142,0.318,0.332,0.579,0.573,0.782
	c0.239,0.203,0.523,0.352,0.852,0.445C500.154,207.668,500.509,207.714,500.892,207.714z"/>
<path fill="#FFFFFF" d="M512.878,209.499v-16.59h1.671c0.316,0,0.535,0.06,0.655,0.181c0.12,0.119,0.202,0.326,0.245,0.621
	l0.197,2.588c0.567-1.156,1.269-2.061,2.104-2.71c0.835-0.649,1.814-0.975,2.939-0.975c0.458,0,0.873,0.052,1.244,0.155
	s0.715,0.248,1.032,0.434l-0.377,2.179c-0.076,0.272-0.245,0.409-0.508,0.409c-0.152,0-0.388-0.051-0.704-0.155
	c-0.316-0.104-0.759-0.155-1.326-0.155c-1.016,0-1.864,0.295-2.547,0.885c-0.683,0.589-1.253,1.446-1.711,2.57v10.563H512.878z"/>
<path fill="#FFFFFF" d="M531.106,209.762c-1.311,0-2.317-0.366-3.021-1.098s-1.057-1.785-1.057-3.161V195.35h-1.998
	c-0.175,0-0.322-0.053-0.442-0.156s-0.18-0.264-0.18-0.482v-1.163l2.719-0.345l0.671-5.125c0.022-0.164,0.093-0.298,0.213-0.402
	c0.12-0.104,0.273-0.154,0.459-0.154h1.474v5.715h4.75v2.113h-4.75v9.957c0,0.699,0.169,1.217,0.508,1.556s0.775,0.508,1.311,0.508
	c0.306,0,0.57-0.041,0.794-0.123s0.418-0.172,0.581-0.271c0.164-0.098,0.304-0.188,0.418-0.27s0.216-0.123,0.303-0.123
	c0.153,0,0.289,0.093,0.41,0.278l0.852,1.392c-0.503,0.471-1.108,0.838-1.818,1.105S531.859,209.762,531.106,209.762z"/>
<path fill="#FFFFFF" d="M538.295,209.499v-16.59h1.736c0.415,0,0.677,0.202,0.786,0.606l0.229,1.801
	c0.721-0.797,1.525-1.441,2.415-1.933c0.891-0.491,1.919-0.737,3.088-0.737c0.905,0,1.705,0.15,2.398,0.451s1.272,0.727,1.736,1.277
	s0.816,1.215,1.057,1.99s0.36,1.632,0.36,2.57v10.563h-2.915v-10.563c0-1.256-0.287-2.229-0.86-2.924
	c-0.573-0.692-1.449-1.039-2.628-1.039c-0.863,0-1.668,0.207-2.416,0.622s-1.438,0.978-2.071,1.687v12.218H538.295z"/>
<path fill="#FFFFFF" d="M563.073,192.646c0.994,0,1.911,0.167,2.752,0.5c0.84,0.333,1.566,0.813,2.178,1.441
	s1.089,1.402,1.434,2.325c0.344,0.923,0.516,1.974,0.516,3.153c0,0.458-0.05,0.764-0.147,0.916c-0.099,0.153-0.284,0.23-0.557,0.23
	H558.21c0.021,1.047,0.163,1.959,0.426,2.734c0.262,0.775,0.622,1.422,1.08,1.94c0.459,0.519,1.005,0.907,1.638,1.163
	c0.634,0.256,1.344,0.385,2.13,0.385c0.73,0,1.361-0.084,1.892-0.254c0.529-0.169,0.984-0.352,1.367-0.549
	c0.382-0.196,0.701-0.379,0.958-0.549c0.256-0.169,0.478-0.254,0.663-0.254c0.24,0,0.426,0.094,0.557,0.279l0.819,1.064
	c-0.36,0.437-0.792,0.816-1.294,1.138c-0.502,0.322-1.04,0.587-1.613,0.794c-0.573,0.208-1.166,0.363-1.777,0.467
	s-1.217,0.156-1.817,0.156c-1.146,0-2.203-0.194-3.169-0.582c-0.966-0.387-1.802-0.955-2.506-1.703s-1.253-1.673-1.646-2.775
	c-0.394-1.104-0.59-2.369-0.59-3.8c0-1.157,0.178-2.237,0.532-3.243c0.354-1.004,0.865-1.875,1.531-2.611
	c0.666-0.737,1.479-1.316,2.44-1.736C560.791,192.857,561.872,192.646,563.073,192.646z M563.139,194.793
	c-1.408,0-2.517,0.406-3.324,1.219c-0.808,0.814-1.311,1.941-1.507,3.383h9.024c0-0.678-0.094-1.297-0.279-1.859
	s-0.458-1.048-0.818-1.457c-0.36-0.41-0.8-0.727-1.318-0.95S563.805,194.793,563.139,194.793z"/>
<path fill="#FFFFFF" d="M573.669,209.499v-16.59h1.671c0.316,0,0.535,0.06,0.655,0.181c0.12,0.119,0.202,0.326,0.245,0.621
	l0.197,2.588c0.567-1.156,1.269-2.061,2.104-2.71c0.835-0.649,1.814-0.975,2.939-0.975c0.458,0,0.873,0.052,1.244,0.155
	s0.715,0.248,1.032,0.434l-0.377,2.179c-0.076,0.272-0.245,0.409-0.508,0.409c-0.152,0-0.388-0.051-0.704-0.155
	c-0.316-0.104-0.759-0.155-1.326-0.155c-1.016,0-1.864,0.295-2.547,0.885c-0.683,0.589-1.253,1.446-1.711,2.57v10.563H573.669z"/>
</svg>
