<?xml version="1.0" encoding="utf-8"?>
<!-- Generator: Adobe Illustrator 15.0.0, SVG Export Plug-In . SVG Version: 6.00 Build 0)  -->
<!DOCTYPE svg PUBLIC "-//W3C//DTD SVG 1.1//EN" "http://www.w3.org/Graphics/SVG/1.1/DTD/svg11.dtd">
<svg version="1.1" id="Layer_1" xmlns="http://www.w3.org/2000/svg" xmlns:xlink="http://www.w3.org/1999/xlink" x="0px" y="0px"
	 width="800px" height="250px" viewBox="0 0 800 250" enable-background="new 0 0 800 250" xml:space="preserve">
<path fill="#A24689" d="M246.053,55.353c6.616,0,12.864,1.314,18.74,3.947c5.872,2.636,11.037,6.181,15.495,10.637
	c4.456,4.456,8,9.658,10.632,15.597c2.636,5.943,3.951,12.292,3.951,19.042c0,6.753-1.283,13.064-3.849,18.94
	c-2.566,5.872-6.043,11.038-10.432,15.493c-4.389,4.461-9.554,7.973-15.495,10.537c-5.945,2.562-12.357,3.847-19.244,3.847
	c-6.752,0-13.099-1.214-19.04-3.646c-5.945-2.431-11.143-5.838-15.597-10.229c-4.458-4.389-7.97-9.555-10.534-15.498
	c-2.566-5.939-3.849-12.422-3.849-19.445c0-6.75,1.246-13.065,3.749-18.939c2.497-5.876,5.974-11.006,10.43-15.397
	c4.458-4.387,9.688-7.899,15.699-10.532C232.715,57.073,239.167,55.625,246.053,55.353z M245.851,75.406
	c-3.917,0-7.664,0.744-11.243,2.229c-3.578,1.487-6.683,3.545-9.317,6.176c-2.631,2.634-4.728,5.707-6.28,9.217
	c-1.553,3.514-2.329,7.361-2.329,11.547c0,3.919,0.776,7.664,2.329,11.242c1.553,3.579,3.649,6.72,6.28,9.42
	c2.634,2.701,5.739,4.83,9.317,6.379c3.58,1.553,7.327,2.331,11.243,2.331s7.664-0.778,11.243-2.331
	c3.576-1.549,6.685-3.678,9.317-6.379c2.635-2.701,4.726-5.841,6.28-9.42c1.551-3.578,2.329-7.323,2.329-11.242
	c-0.404-7.968-3.24-14.686-8.507-20.157c-5.267-5.467-12.087-8.473-20.46-9.012H245.851z"/>
<path fill="#8F8F8F" d="M387.036,24.131c2.297-0.133,4.458,0.778,6.483,2.736c2.025,1.959,3.038,4.084,3.038,6.378v71.101
	c0,6.62-1.35,12.898-4.049,18.838c-2.705,5.943-6.35,11.141-10.941,15.597s-9.823,8.001-15.697,10.635
	c-5.876,2.633-12.054,3.951-18.535,3.951c-6.618,0-12.898-1.283-18.837-3.85c-5.946-2.564-11.144-6.078-15.597-10.534
	c-4.458-4.456-8.003-9.653-10.637-15.597c-2.631-5.939-3.949-12.287-3.949-19.04c0-7.292,1.181-13.705,3.545-19.244
	c2.362-5.535,5.904-10.734,10.636-15.597v0.203c4.994-4.726,10.498-8.303,16.508-10.735c6.007-2.431,12.186-3.647,18.533-3.647
	c3.78,0,8.271,0.607,13.47,1.825c5.198,1.213,10.363,3.58,15.497,7.087V34.259c0-1.349,0.268-2.634,0.812-3.849
	c0.535-1.216,1.246-2.33,2.125-3.343c0.878-1.011,1.925-1.786,3.141-2.329c1.215-0.538,2.429-0.74,3.647-0.607H387.036z
	 M376.504,104.346c0-3.647-0.778-7.222-2.331-10.736c-1.553-3.51-3.682-6.648-6.378-9.419c-2.703-2.766-5.809-4.963-9.319-6.583
	c-3.512-1.622-7.227-2.429-11.141-2.429c-3.919,0-7.666,0.776-11.241,2.327c-3.58,1.555-6.685,3.645-9.319,6.278
	c-2.633,2.634-4.729,5.741-6.28,9.319c-1.555,3.58-2.327,7.327-2.327,11.243c0,4.052,0.772,7.833,2.327,11.344
	c1.551,3.514,3.647,6.583,6.28,9.216c2.634,2.634,5.739,4.73,9.319,6.279c3.575,1.555,7.322,2.33,11.241,2.33
	c3.915,0,7.629-0.775,11.141-2.33c3.51-1.549,6.616-3.646,9.319-6.279c2.697-2.633,4.826-5.702,6.378-9.216
	C375.726,112.18,376.504,108.398,376.504,104.346z"/>
<path fill="#8F8F8F" d="M451.452,55.353c6.613,0,12.861,1.314,18.735,3.947c5.876,2.636,11.041,6.181,15.497,10.637
	s8.001,9.658,10.634,15.597c2.632,5.943,3.95,12.292,3.95,19.042c0,6.753-1.285,13.064-3.848,18.94
	c-2.568,5.872-6.048,11.038-10.432,15.493c-4.392,4.461-9.559,7.973-15.497,10.537c-5.944,2.562-12.357,3.847-19.244,3.847
	c-6.755,0-13.101-1.214-19.042-3.646c-5.941-2.431-11.14-5.838-15.598-10.229c-4.454-4.389-7.968-9.555-10.532-15.498
	c-2.566-5.939-3.847-12.422-3.847-19.445c0-6.75,1.246-13.065,3.747-18.939c2.496-5.876,5.974-11.006,10.432-15.397
	c4.454-4.387,9.688-7.899,15.697-10.532C438.114,57.073,444.563,55.625,451.452,55.353z M451.248,75.406
	c-3.917,0-7.666,0.744-11.242,2.229c-3.579,1.487-6.685,3.545-9.316,6.176c-2.636,2.634-4.729,5.707-6.28,9.217
	c-1.555,3.514-2.329,7.361-2.329,11.547c0,3.919,0.774,7.664,2.329,11.242c1.551,3.579,3.645,6.72,6.28,9.42
	c2.632,2.701,5.737,4.83,9.316,6.379c3.576,1.553,7.325,2.331,11.242,2.331c3.914,0,7.663-0.778,11.241-2.331
	c3.579-1.549,6.687-3.678,9.32-6.379c2.632-2.701,4.724-5.841,6.278-9.42c1.551-3.578,2.331-7.323,2.331-11.242
	c-0.406-7.968-3.244-14.686-8.509-20.157c-5.266-5.467-12.088-8.473-20.458-9.012H451.248z"/>
<path fill="#8F8F8F" d="M554.352,55.353c6.615,0,12.863,1.314,18.739,3.947c5.872,2.636,11.037,6.181,15.495,10.637
	c4.456,4.456,8.001,9.658,10.633,15.597c2.636,5.943,3.951,12.292,3.951,19.042c0,6.753-1.285,13.064-3.85,18.94
	c-2.565,5.872-6.045,11.038-10.432,15.493c-4.389,4.461-9.554,7.973-15.495,10.537c-5.945,2.562-12.356,3.847-19.244,3.847
	c-6.753,0-13.101-1.214-19.04-3.646c-5.945-2.431-11.143-5.838-15.597-10.229c-4.458-4.389-7.971-9.555-10.534-15.498
	c-2.566-5.939-3.85-12.422-3.85-19.445c0-6.75,1.246-13.065,3.747-18.939c2.499-5.876,5.976-11.006,10.432-15.397
	c4.458-4.387,9.688-7.899,15.7-10.532C541.014,57.073,547.464,55.625,554.352,55.353z M554.149,75.406
	c-3.917,0-7.666,0.744-11.243,2.229c-3.58,1.487-6.686,3.545-9.316,6.176c-2.634,2.634-4.729,5.707-6.281,9.217
	c-1.553,3.514-2.329,7.361-2.329,11.547c0,3.919,0.776,7.664,2.329,11.242c1.553,3.579,3.647,6.72,6.281,9.42
	c2.631,2.701,5.736,4.83,9.316,6.379c3.577,1.553,7.326,2.331,11.243,2.331s7.664-0.778,11.243-2.331
	c3.575-1.549,6.686-3.678,9.316-6.379c2.634-2.701,4.727-5.841,6.281-9.42c1.551-3.578,2.329-7.323,2.329-11.242
	c-0.405-7.968-3.241-14.686-8.508-20.157c-5.268-5.467-12.087-8.473-20.46-9.012H554.149z"/>
<g>
	<path fill="#21B799" d="M603.17,222.711c0,1.922-1.557,3.479-3.478,3.479H361.82c-1.921,0-3.478-1.557-3.478-3.479v-48.279
		c0-1.923,1.557-3.479,3.478-3.479h237.872c1.921,0,3.478,1.557,3.478,3.479V222.711z"/>
	<g>
		<g>
			<path fill="#FFFFFF" d="M384.762,199.846v9.793h-3.161V186.17h6.633c1.484,0,2.768,0.15,3.849,0.451
				c1.081,0.3,1.973,0.734,2.677,1.302c0.705,0.567,1.226,1.253,1.564,2.056c0.338,0.802,0.508,1.7,0.508,2.693
				c0,0.83-0.131,1.605-0.393,2.326c-0.262,0.721-0.642,1.367-1.138,1.94c-0.497,0.573-1.103,1.062-1.818,1.466
				s-1.526,0.709-2.432,0.917c0.393,0.229,0.742,0.563,1.048,0.999l6.846,9.318h-2.817c-0.579,0-1.004-0.224-1.277-0.672
				l-6.092-8.385c-0.186-0.262-0.388-0.45-0.606-0.564c-0.219-0.115-0.546-0.172-0.983-0.172H384.762z M384.762,197.536h3.325
				c0.928,0,1.744-0.112,2.448-0.336s1.294-0.54,1.769-0.95c0.475-0.409,0.833-0.897,1.073-1.465c0.24-0.568,0.36-1.195,0.36-1.884
				c0-1.397-0.461-2.451-1.384-3.161c-0.923-0.709-2.295-1.064-4.119-1.064h-3.472V197.536z"/>
			<path fill="#FFFFFF" d="M408.477,192.787c0.992,0,1.91,0.166,2.75,0.499c0.842,0.333,1.566,0.813,2.18,1.441
				c0.611,0.628,1.088,1.403,1.432,2.325c0.344,0.923,0.516,1.974,0.516,3.152c0,0.459-0.049,0.765-0.146,0.918
				c-0.098,0.152-0.285,0.229-0.557,0.229h-11.039c0.021,1.049,0.164,1.96,0.426,2.735s0.623,1.423,1.082,1.94
				c0.457,0.52,1.004,0.906,1.637,1.163s1.344,0.385,2.129,0.385c0.732,0,1.363-0.085,1.893-0.254s0.984-0.353,1.367-0.549
				c0.381-0.196,0.701-0.379,0.957-0.548c0.258-0.17,0.479-0.254,0.664-0.254c0.24,0,0.426,0.092,0.557,0.277l0.818,1.064
				c-0.359,0.438-0.791,0.816-1.293,1.139s-1.041,0.588-1.613,0.795s-1.166,0.363-1.777,0.467s-1.217,0.155-1.818,0.155
				c-1.145,0-2.201-0.194-3.168-0.581c-0.967-0.389-1.801-0.955-2.506-1.703s-1.252-1.674-1.646-2.776
				c-0.393-1.103-0.589-2.369-0.589-3.8c0-1.157,0.177-2.238,0.532-3.242c0.355-1.005,0.865-1.875,1.531-2.612
				s1.479-1.315,2.439-1.736C406.193,192.997,407.275,192.787,408.477,192.787z M408.541,194.932c-1.408,0-2.516,0.407-3.324,1.221
				s-1.311,1.94-1.506,3.382h9.023c0-0.677-0.094-1.296-0.279-1.858s-0.459-1.049-0.818-1.458c-0.361-0.409-0.801-0.726-1.318-0.95
				C409.799,195.044,409.207,194.932,408.541,194.932z"/>
			<path fill="#FFFFFF" d="M431.256,209.639h-1.293c-0.285,0-0.514-0.043-0.689-0.131c-0.174-0.088-0.289-0.273-0.344-0.557
				l-0.326-1.539c-0.438,0.393-0.863,0.744-1.277,1.056c-0.416,0.312-0.852,0.573-1.311,0.786s-0.947,0.374-1.467,0.482
				c-0.518,0.109-1.094,0.164-1.727,0.164c-0.645,0-1.248-0.09-1.811-0.271s-1.051-0.452-1.465-0.813
				c-0.416-0.361-0.746-0.819-0.992-1.373c-0.244-0.553-0.367-1.207-0.367-1.963c0-0.657,0.18-1.29,0.539-1.898
				c0.361-0.607,0.943-1.147,1.744-1.619c0.803-0.471,1.854-0.856,3.154-1.158c1.299-0.301,2.887-0.451,4.766-0.451v-1.303
				c0-1.297-0.277-2.276-0.828-2.941c-0.551-0.664-1.367-0.997-2.447-0.997c-0.711,0-1.309,0.09-1.795,0.271
				c-0.484,0.18-0.906,0.382-1.26,0.605c-0.355,0.225-0.662,0.426-0.918,0.605c-0.256,0.181-0.51,0.271-0.762,0.271
				c-0.195,0-0.367-0.053-0.516-0.156c-0.146-0.104-0.264-0.232-0.352-0.385l-0.523-0.934c0.916-0.885,1.904-1.545,2.963-1.981
				s2.232-0.655,3.521-0.655c0.928,0,1.752,0.152,2.473,0.459c0.721,0.305,1.326,0.73,1.818,1.277
				c0.49,0.546,0.861,1.206,1.113,1.981s0.377,1.627,0.377,2.555V209.639z M423.689,207.854c0.514,0,0.982-0.052,1.408-0.156
				c0.426-0.104,0.828-0.25,1.203-0.441c0.377-0.191,0.738-0.423,1.082-0.696c0.344-0.272,0.68-0.583,1.008-0.933v-3.424
				c-1.344,0-2.484,0.086-3.424,0.256s-1.703,0.393-2.293,0.667s-1.018,0.599-1.285,0.972c-0.268,0.374-0.4,0.791-0.4,1.252
				c0,0.439,0.07,0.818,0.213,1.137c0.141,0.318,0.332,0.58,0.572,0.783s0.523,0.352,0.852,0.443
				C422.953,207.807,423.307,207.854,423.689,207.854z"/>
			<path fill="#FFFFFF" d="M447.354,209.639c-0.414,0-0.678-0.201-0.785-0.605l-0.264-2.015c-0.709,0.862-1.52,1.554-2.432,2.071
				c-0.912,0.52-1.957,0.778-3.137,0.778c-0.949,0-1.813-0.183-2.586-0.549c-0.775-0.366-1.438-0.903-1.982-1.613
				c-0.547-0.71-0.967-1.594-1.262-2.653c-0.295-1.059-0.441-2.275-0.441-3.652c0-1.223,0.164-2.36,0.492-3.414
				c0.326-1.053,0.799-1.968,1.416-2.743c0.617-0.774,1.367-1.384,2.252-1.826s1.889-0.663,3.014-0.663
				c1.016,0,1.883,0.172,2.604,0.516s1.365,0.827,1.932,1.449v-9.203h2.916v24.123H447.354z M441.703,207.51
				c0.951,0,1.783-0.219,2.498-0.655s1.373-1.054,1.973-1.851v-8.025c-0.535-0.72-1.121-1.225-1.76-1.514s-1.346-0.435-2.121-0.435
				c-1.551,0-2.74,0.552-3.57,1.654s-1.244,2.675-1.244,4.716c0,1.082,0.092,2.007,0.277,2.776c0.186,0.771,0.459,1.403,0.82,1.899
				c0.359,0.498,0.801,0.86,1.326,1.09C440.426,207.395,441.027,207.51,441.703,207.51z"/>
			<path fill="#FFFFFF" d="M458.85,214.535c-0.098,0.219-0.221,0.394-0.367,0.524c-0.148,0.131-0.375,0.196-0.68,0.196h-2.162
				l3.029-6.584l-6.846-15.623h2.521c0.252,0,0.449,0.063,0.59,0.188c0.143,0.127,0.246,0.266,0.313,0.418l4.438,10.449
				c0.098,0.24,0.184,0.48,0.254,0.721s0.133,0.485,0.188,0.736c0.076-0.251,0.154-0.496,0.23-0.736s0.164-0.486,0.262-0.737
				l4.307-10.433c0.066-0.174,0.178-0.318,0.336-0.434s0.33-0.172,0.516-0.172h2.326L458.85,214.535z"/>
			<path fill="#FFFFFF" d="M481.025,200.86v8.778h-3.162V186.17h6.928c1.484,0,2.777,0.172,3.873,0.516
				c1.098,0.345,2.008,0.834,2.729,1.467c0.719,0.633,1.258,1.397,1.611,2.293c0.355,0.895,0.533,1.894,0.533,2.996
				c0,1.092-0.191,2.092-0.574,2.998c-0.381,0.906-0.941,1.686-1.678,2.342c-0.736,0.654-1.652,1.165-2.742,1.531
				c-1.094,0.365-2.344,0.548-3.752,0.548H481.025z M481.025,198.338h3.766c0.906,0,1.707-0.119,2.4-0.359s1.273-0.576,1.744-1.008
				c0.469-0.431,0.824-0.947,1.064-1.547c0.24-0.601,0.359-1.262,0.359-1.982c0-1.495-0.461-2.664-1.383-3.504
				c-0.924-0.841-2.318-1.262-4.186-1.262h-3.766V198.338z"/>
			<path fill="#FFFFFF" d="M508.455,209.639h-1.293c-0.283,0-0.514-0.043-0.688-0.131c-0.176-0.088-0.289-0.273-0.344-0.557
				l-0.328-1.539c-0.438,0.393-0.863,0.744-1.277,1.056s-0.852,0.573-1.311,0.786s-0.947,0.374-1.465,0.482
				c-0.52,0.109-1.096,0.164-1.729,0.164c-0.645,0-1.248-0.09-1.809-0.271c-0.563-0.181-1.051-0.452-1.467-0.813
				c-0.414-0.361-0.744-0.819-0.99-1.373c-0.246-0.553-0.369-1.207-0.369-1.963c0-0.657,0.18-1.29,0.541-1.898
				c0.359-0.607,0.941-1.147,1.744-1.619c0.803-0.471,1.854-0.856,3.152-1.158c1.299-0.301,2.889-0.451,4.766-0.451v-1.303
				c0-1.297-0.275-2.276-0.826-2.941c-0.553-0.664-1.369-0.997-2.449-0.997c-0.709,0-1.307,0.09-1.793,0.271
				c-0.486,0.18-0.906,0.382-1.262,0.605c-0.354,0.225-0.66,0.426-0.916,0.605c-0.258,0.181-0.512,0.271-0.762,0.271
				c-0.197,0-0.369-0.053-0.516-0.156c-0.148-0.104-0.266-0.232-0.354-0.385l-0.523-0.934c0.918-0.885,1.904-1.545,2.965-1.981
				c1.059-0.437,2.232-0.655,3.521-0.655c0.928,0,1.752,0.152,2.473,0.459c0.721,0.305,1.326,0.73,1.816,1.277
				c0.492,0.546,0.863,1.206,1.115,1.981c0.25,0.775,0.375,1.627,0.375,2.555V209.639z M500.891,207.854
				c0.512,0,0.982-0.052,1.408-0.156c0.426-0.104,0.826-0.25,1.203-0.441s0.736-0.423,1.08-0.696
				c0.344-0.272,0.68-0.583,1.008-0.933v-3.424c-1.344,0-2.484,0.086-3.422,0.256c-0.939,0.17-1.703,0.393-2.293,0.667
				s-1.02,0.599-1.287,0.972c-0.268,0.374-0.4,0.791-0.4,1.252c0,0.439,0.07,0.818,0.213,1.137s0.332,0.58,0.574,0.783
				c0.238,0.203,0.523,0.352,0.852,0.443C500.152,207.807,500.508,207.854,500.891,207.854z"/>
			<path fill="#FFFFFF" d="M512.877,209.639v-16.59h1.672c0.316,0,0.535,0.061,0.654,0.18c0.121,0.121,0.203,0.328,0.246,0.623
				l0.197,2.588c0.566-1.158,1.268-2.062,2.104-2.711s1.814-0.975,2.939-0.975c0.459,0,0.873,0.052,1.244,0.156
				c0.371,0.104,0.715,0.248,1.033,0.434l-0.377,2.178c-0.076,0.273-0.246,0.41-0.508,0.41c-0.152,0-0.389-0.053-0.705-0.156
				s-0.758-0.155-1.326-0.155c-1.016,0-1.863,0.294-2.547,0.884c-0.682,0.59-1.252,1.447-1.711,2.572v10.563H512.877z"/>
			<path fill="#FFFFFF" d="M531.105,209.9c-1.311,0-2.318-0.365-3.021-1.098c-0.705-0.73-1.057-1.784-1.057-3.16v-10.154h-1.998
				c-0.176,0-0.322-0.051-0.443-0.154c-0.119-0.104-0.18-0.266-0.18-0.484v-1.162l2.719-0.344l0.672-5.127
				c0.021-0.163,0.092-0.297,0.213-0.4c0.119-0.104,0.273-0.156,0.459-0.156h1.473v5.717h4.75v2.111h-4.75v9.958
				c0,0.698,0.17,1.218,0.508,1.556s0.775,0.508,1.311,0.508c0.307,0,0.57-0.041,0.795-0.123c0.223-0.082,0.418-0.172,0.58-0.27
				c0.164-0.099,0.305-0.189,0.418-0.271c0.115-0.081,0.217-0.122,0.303-0.122c0.154,0,0.289,0.093,0.41,0.278l0.852,1.393
				c-0.502,0.469-1.107,0.838-1.818,1.105C532.59,209.768,531.857,209.9,531.105,209.9z"/>
			<path fill="#FFFFFF" d="M538.293,209.639v-16.59h1.736c0.416,0,0.678,0.202,0.787,0.605l0.229,1.802
				c0.721-0.797,1.525-1.44,2.416-1.933c0.891-0.491,1.918-0.736,3.088-0.736c0.904,0,1.705,0.15,2.398,0.449
				c0.693,0.301,1.271,0.727,1.736,1.278c0.463,0.552,0.816,1.214,1.057,1.989c0.238,0.775,0.359,1.633,0.359,2.572v10.563h-2.914
				v-10.563c0-1.256-0.287-2.23-0.861-2.924c-0.572-0.693-1.449-1.04-2.627-1.04c-0.863,0-1.668,0.208-2.416,0.622
				c-0.748,0.415-1.439,0.978-2.072,1.688v12.217H538.293z"/>
			<path fill="#FFFFFF" d="M563.072,192.787c0.994,0,1.912,0.166,2.752,0.499s1.566,0.813,2.178,1.441s1.09,1.403,1.434,2.325
				c0.344,0.923,0.516,1.974,0.516,3.152c0,0.459-0.049,0.765-0.146,0.918c-0.1,0.152-0.285,0.229-0.557,0.229h-11.039
				c0.021,1.049,0.164,1.96,0.426,2.735s0.623,1.423,1.08,1.94c0.459,0.52,1.006,0.906,1.639,1.163s1.344,0.385,2.129,0.385
				c0.73,0,1.361-0.085,1.891-0.254c0.531-0.169,0.986-0.353,1.369-0.549c0.381-0.196,0.701-0.379,0.957-0.548
				c0.256-0.17,0.479-0.254,0.664-0.254c0.24,0,0.426,0.092,0.557,0.277l0.818,1.064c-0.359,0.438-0.791,0.816-1.293,1.139
				c-0.504,0.322-1.041,0.588-1.613,0.795c-0.574,0.207-1.166,0.363-1.777,0.467s-1.217,0.155-1.818,0.155
				c-1.146,0-2.203-0.194-3.168-0.581c-0.967-0.389-1.803-0.955-2.506-1.703c-0.705-0.748-1.254-1.674-1.646-2.776
				s-0.59-2.369-0.59-3.8c0-1.157,0.178-2.238,0.533-3.242c0.354-1.005,0.865-1.875,1.531-2.612s1.479-1.315,2.439-1.736
				C560.791,192.997,561.871,192.787,563.072,192.787z M563.139,194.932c-1.408,0-2.518,0.407-3.324,1.221
				c-0.809,0.813-1.311,1.94-1.508,3.382h9.023c0-0.677-0.092-1.296-0.277-1.858s-0.459-1.049-0.818-1.458
				c-0.361-0.409-0.801-0.726-1.318-0.95C564.396,195.044,563.805,194.932,563.139,194.932z"/>
			<path fill="#FFFFFF" d="M573.668,209.639v-16.59h1.67c0.316,0,0.535,0.061,0.656,0.18c0.119,0.121,0.201,0.328,0.244,0.623
				l0.197,2.588c0.568-1.158,1.27-2.062,2.105-2.711c0.834-0.649,1.814-0.975,2.939-0.975c0.457,0,0.873,0.052,1.244,0.156
				c0.371,0.104,0.715,0.248,1.031,0.434l-0.377,2.178c-0.076,0.273-0.244,0.41-0.508,0.41c-0.152,0-0.387-0.053-0.703-0.156
				s-0.76-0.155-1.326-0.155c-1.016,0-1.865,0.294-2.547,0.884c-0.684,0.59-1.254,1.447-1.711,2.572v10.563H573.668z"/>
		</g>
	</g>
</g>
</svg>
